<svg width="27" height="22" viewBox="0 0 27 22" xmlns="http://www.w3.org/2000/svg"><title>email</title><g fill="#FFF"><path d="M2.59 6.809c.34.25 1.37.99 3.086 2.221a755.124 755.124 0 0 1 3.945 2.844c.1.073.313.231.64.476.326.244.597.441.812.592.216.15.477.32.783.506.307.187.595.328.866.42.271.095.522.141.753.141h.03c.231 0 .482-.046.753-.14.271-.093.56-.234.866-.42.306-.188.567-.356.783-.507.216-.15.486-.348.813-.592.326-.245.54-.403.64-.476.923-.665 3.272-2.353 7.046-5.065a7.287 7.287 0 0 0 1.836-1.917c.492-.748.738-1.533.738-2.353a2.43 2.43 0 0 0-.715-1.762C25.788.29 25.223.045 24.57.045H2.41c-.773 0-1.368.27-1.784.81C.208 1.395 0 2.071 0 2.881c0 .655.276 1.364.828 2.128.552.764 1.14 1.364 1.762 1.8z"/><path d="M25.474 8.477c-3.291 2.306-5.791 4.099-7.497 5.377-.572.436-1.036.777-1.393 1.02-.356.245-.83.494-1.423.749-.592.254-1.143.381-1.655.381h-.031c-.512 0-1.064-.127-1.656-.381-.592-.255-1.067-.504-1.423-.748a36.13 36.13 0 0 1-1.392-1.021c-1.356-1.029-3.85-2.821-7.483-5.377A8.06 8.06 0 0 1 0 7.12v12.374c0 .687.236 1.273.708 1.762.471.488 1.039.733 1.701.733h22.162c.663 0 1.23-.245 1.702-.733a2.443 2.443 0 0 0 .707-1.762V7.121c-.431.498-.933.95-1.506 1.356z"/></g></svg>