<svg width="30" height="25" viewBox="0 0 30 25" xmlns="http://www.w3.org/2000/svg"><title>twitter</title><path d="M30 2.975c-1.104.5-2.289.84-3.534.992A6.304 6.304 0 0 0 29.171.483a12.231 12.231 0 0 1-3.91 1.53 6.07 6.07 0 0 0-4.492-1.99c-3.399 0-6.154 2.821-6.154 6.3 0 .493.054.975.16 1.436C9.66 7.496 5.124 4.987 2.09 1.174a6.37 6.37 0 0 0-.832 3.168 6.34 6.34 0 0 0 2.737 5.245 6.045 6.045 0 0 1-2.788-.791v.078c0 3.053 2.122 5.6 4.936 6.18a6.094 6.094 0 0 1-1.621.221 5.76 5.76 0 0 1-1.159-.117c.784 2.505 3.056 4.327 5.748 4.377a12.164 12.164 0 0 1-7.643 2.694c-.497 0-.986-.031-1.468-.087a17.1 17.1 0 0 0 9.433 2.836c11.321 0 17.51-9.603 17.51-17.931l-.021-.816A12.456 12.456 0 0 0 30 2.975z" fill="#FFF"/></svg>