<?xml version="1.0" standalone="no"?> 
<!DOCTYPE svg PUBLIC "-//W3C//DTD SVG 1.1//EN" "http://www.w3.org/Graphics/SVG/1.1/DTD/svg11.dtd" >
<svg xmlns="http://www.w3.org/2000/svg">
<defs>
  <font id="IconFont" horiz-adv-x="30">
    <font-face font-family="IconFont"
      units-per-em="1001" ascent="1001"
      descent="0" />
    <missing-glyph horiz-adv-x="0" />
    <glyph glyph-name="alert"
      unicode="&#xEA01;"
      horiz-adv-x="1167.8333333333335" d=" M548.3255555555555 991.1568333333335L253.9203333333334 768.8236111111112H38.0936111111111A38.20483333333333 38.20483333333333 0 0 1 0 730.4519444444444V270.5480555555555C0 249.3046111111111 17.0726111111111 232.176388888889 38.0936111111111 232.176388888889H253.8647222222222L548.3811666666668 9.8431666666665A38.093611111111116 38.093611111111116 0 0 1 609.3309444444445 40.5405V960.403888888889A38.093611111111116 38.093611111111116 0 0 1 548.3255555555555 991.1568333333335zM228.5616666666667 308.8085H76.1872222222222V692.1358888888889H228.5616666666667V308.8085zM533.1993333333335 117.1726111111111L304.6376666666667 289.733888888889V711.2661111111111L533.1437222222222 883.7717777777777V117.117zM1000.7775555555556 907.0172222222222A37.92677777777779 37.92677777777779 0 0 1 946.946 907.0172222222222A38.48288888888889 38.48288888888889 0 0 1 946.946 852.852A496.6072222222223 496.6072222222223 0 0 0 1091.6461111111112 500.5A496.6072222222223 496.6072222222223 0 0 0 946.946 148.1479999999999A38.48288888888889 38.48288888888889 0 0 1 946.946 93.9271666666666A37.81555555555556 37.81555555555556 0 0 1 1000.7775555555556 93.9271666666666A572.9612777777779 572.9612777777779 0 0 1 1167.8333333333335 500.5C1167.8333333333335 654.2647222222222 1108.4962777777778 798.6311666666667 1000.7775555555556 907.0172222222222z M893.1144444444444 798.6867777777777A37.92677777777779 37.92677777777779 0 0 1 839.2272777777778 798.6867777777777A38.48288888888889 38.48288888888889 0 0 1 839.2272777777778 744.4659444444444C972.8051666666667 609.9426666666666 972.8051666666667 391.0573333333333 839.2272777777778 256.4784444444445A38.48288888888889 38.48288888888889 0 0 1 839.2272777777778 202.3132222222222A37.81555555555556 37.81555555555556 0 0 1 893.0588333333333 202.3132222222222C1056.3330555555556 366.6996666666667 1056.3330555555556 634.2447222222222 893.0588333333333 798.6867777777777z" />
    <glyph glyph-name="arrow-next"
      unicode="&#xEA02;"
      horiz-adv-x="523.25" d=" M514.423 521.2935L48.867 992.6735A27.595750000000002 27.595750000000002 0 0 1 9.373 992.6735A28.4375 28.4375 0 0 1 9.373 952.679L455.0454999999999 501.3872500000001L9.39575 50.0954999999999A28.4375 28.4375 0 0 1 29.05175 1.729C36.0815 1.729 43.316 4.4589999999999 48.685 10.1010000000001L514.241 481.481C525.2065 492.4010000000001 525.2065 510.3735 514.44575 521.2935z" />
    <glyph glyph-name="arrow-prev"
      unicode="&#xEA03;"
      horiz-adv-x="523.25" d=" M8.827 521.2935L474.383 992.6735A27.595750000000002 27.595750000000002 0 0 0 513.8770000000001 992.6735A28.4375 28.4375 0 0 0 513.8770000000001 952.679L68.2045 501.3872500000001L513.8770000000001 50.0954999999999A28.4375 28.4375 0 0 0 494.221 1.729C487.19125 1.729 479.9567500000001 4.4589999999999 474.58775 10.1010000000001L9.03175 481.481A28.36925 28.36925 0 0 0 8.827 521.2935z" />
    <glyph glyph-name="attach"
      unicode="&#xEA04;"
      horiz-adv-x="942.1176470588235" d=" M251.7809411764706 34.034A234.5284117647059 234.5284117647059 0 0 0 84.7905882352941 103.0441176470588A234.64617647058827 234.64617647058827 0 0 0 15.7804705882353 270.1522352941177C15.7804705882353 333.3918823529413 40.2755294117647 392.7452941176472 84.7905882352941 437.2014705882354L573.3963529411765 925.8661176470588C643.289705882353 995.641705882353 751.9276470588235 992.5209411764706 826.1194117647059 918.3880588235294C900.252294117647 844.1962941176471 903.4319411764706 735.6172352941177 833.538588235294 665.7238823529411L374.4917647058823 206.6181764705882A110.69882352941175 110.69882352941175 0 0 0 218.0413529411764 206.6181764705882A110.75770588235294 110.75770588235294 0 0 0 218.0413529411764 363.0685882352941L528.9401764705882 674.026294117647A26.85035294117647 26.85035294117647 0 1 0 566.9781764705882 636.0471764705883L256.0204705882353 325.1483529411765A56.99811764705883 56.99811764705883 0 0 1 256.0204705882353 244.5972941176469A57.057 57.057 0 0 1 336.5126470588235 244.5972941176469L795.5005882352941 703.6441176470588C843.7841176470588 751.9276470588236 840.5455882352942 827.8858823529412 788.0814117647059 880.4089411764705C735.5583529411765 932.932 659.6001176470588 936.0527647058822 611.3165882352943 887.8281176470588L122.7108235294119 399.1045882352941A181.23988235294118 181.23988235294118 0 0 1 69.4811764705883 270.0933529411765C69.4811764705883 221.1621176470588 88.3235294117648 175.2927647058824 122.7108235294119 140.9643529411765A181.23988235294118 181.23988235294118 0 0 1 251.7809411764707 87.734705882353C300.6532941176472 87.734705882353 346.5815294117649 106.6359411764706 380.8510588235295 140.9643529411765L869.515705882353 629.6289999999999A26.85035294117647 26.85035294117647 0 1 0 907.4948235294117 591.6498823529412L418.8301764705883 102.9852352941177A234.58729411764705 234.58729411764705 0 0 0 251.7809411764707 34.0928823529412z" />
    <glyph glyph-name="calendar"
      unicode="&#xEA05;"
      horiz-adv-x="1334.6666666666667" d=" M994.3266666666668 647.3133333333333C994.3266666666668 601.2435804516147 1031.6735804516147 563.8966666666666 1077.7433333333333 563.8966666666666C1123.813086215052 563.8966666666666 1161.16 601.2435804516147 1161.16 647.3133333333333C1161.16 693.383086215052 1123.813086215052 730.73 1077.7433333333333 730.73C1031.6735804516147 730.73 994.3266666666668 693.383086215052 994.3266666666668 647.3133333333333z M788.2875 647.3133333333333C788.2875 601.2435804516147 825.634413784948 563.8966666666666 871.7041666666667 563.8966666666666C917.7739195483854 563.8966666666666 955.1208333333332 601.2435804516147 955.1208333333332 647.3133333333333C955.1208333333332 693.383086215052 917.7739195483854 730.73 871.7041666666667 730.73C825.634413784948 730.73 788.2875 693.383086215052 788.2875 647.3133333333333z M582.2483333333334 647.3133333333333C582.2483333333334 601.2435804516147 619.5952471182813 563.8966666666666 665.6650000000001 563.8966666666666C711.7347528817187 563.8966666666666 749.0816666666667 601.2435804516147 749.0816666666667 647.3133333333333C749.0816666666667 693.383086215052 711.7347528817187 730.73 665.6650000000001 730.73C619.5952471182813 730.73 582.2483333333334 693.383086215052 582.2483333333334 647.3133333333333z M377.0433333333333 647.3133333333333C377.0433333333333 601.2435804516147 414.3902471182813 563.8966666666666 460.46 563.8966666666666C506.5297528817187 563.8966666666666 543.8766666666667 601.2435804516147 543.8766666666667 647.3133333333333C543.8766666666667 693.383086215052 506.5297528817187 730.73 460.46 730.73C414.3902471182813 730.73 377.0433333333333 693.383086215052 377.0433333333333 647.3133333333333z M171.0041666666667 647.3133333333333C171.0041666666667 601.2435804516147 208.3510804516146 563.8966666666666 254.4208333333333 563.8966666666666C300.490586215052 563.8966666666666 337.8375 601.2435804516147 337.8375 647.3133333333333C337.8375 693.383086215052 300.490586215052 730.73 254.4208333333333 730.73C208.3510804516146 730.73 171.0041666666667 693.383086215052 171.0041666666667 647.3133333333333z M994.3266666666668 442.1083333333333C994.3266666666668 396.0385804516146 1031.6735804516147 358.6916666666666 1077.7433333333333 358.6916666666666C1123.813086215052 358.6916666666666 1161.16 396.0385804516146 1161.16 442.1083333333333C1161.16 488.178086215052 1123.813086215052 525.525 1077.7433333333333 525.525C1031.6735804516147 525.525 994.3266666666668 488.178086215052 994.3266666666668 442.1083333333333z M788.2875 442.1083333333333C788.2875 396.0385804516146 825.634413784948 358.6916666666666 871.7041666666667 358.6916666666666C917.7739195483854 358.6916666666666 955.1208333333332 396.0385804516146 955.1208333333332 442.1083333333333C955.1208333333332 488.178086215052 917.7739195483854 525.525 871.7041666666667 525.525C825.634413784948 525.525 788.2875 488.178086215052 788.2875 442.1083333333333z M582.2483333333334 442.1083333333333C582.2483333333334 396.0385804516146 619.5952471182813 358.6916666666666 665.6650000000001 358.6916666666666C711.7347528817187 358.6916666666666 749.0816666666667 396.0385804516146 749.0816666666667 442.1083333333333C749.0816666666667 488.178086215052 711.7347528817187 525.525 665.6650000000001 525.525C619.5952471182813 525.525 582.2483333333334 488.178086215052 582.2483333333334 442.1083333333333z M171.0041666666667 442.1083333333333C171.0041666666667 396.0385804516146 208.3510804516146 358.6916666666666 254.4208333333333 358.6916666666666C300.490586215052 358.6916666666666 337.8375 396.0385804516146 337.8375 442.1083333333333C337.8375 488.178086215052 300.490586215052 525.525 254.4208333333333 525.525C208.3510804516146 525.525 171.0041666666667 488.178086215052 171.0041666666667 442.1083333333333z M994.3266666666668 237.7375C994.3266666666668 191.6677471182812 1031.6735804516147 154.3208333333332 1077.7433333333333 154.3208333333332C1123.813086215052 154.3208333333332 1161.16 191.6677471182812 1161.16 237.7375C1161.16 283.8072528817186 1123.813086215052 321.1541666666666 1077.7433333333333 321.1541666666666C1031.6735804516147 321.1541666666666 994.3266666666668 283.8072528817186 994.3266666666668 237.7375z M788.2875 237.7375C788.2875 191.6677471182812 825.634413784948 154.3208333333332 871.7041666666667 154.3208333333332C917.7739195483854 154.3208333333332 955.1208333333332 191.6677471182812 955.1208333333332 237.7375C955.1208333333332 283.8072528817186 917.7739195483854 321.1541666666666 871.7041666666667 321.1541666666666C825.634413784948 321.1541666666666 788.2875 283.8072528817186 788.2875 237.7375z M582.2483333333334 237.7375C582.2483333333334 191.6677471182812 619.5952471182813 154.3208333333332 665.6650000000001 154.3208333333332C711.7347528817187 154.3208333333332 749.0816666666667 191.6677471182812 749.0816666666667 237.7375C749.0816666666667 283.8072528817186 711.7347528817187 321.1541666666666 665.6650000000001 321.1541666666666C619.5952471182813 321.1541666666666 582.2483333333334 283.8072528817186 582.2483333333334 237.7375z M377.0433333333333 237.7375C377.0433333333333 191.6677471182812 414.3902471182813 154.3208333333332 460.46 154.3208333333332C506.5297528817187 154.3208333333332 543.8766666666667 191.6677471182812 543.8766666666667 237.7375C543.8766666666667 283.8072528817186 506.5297528817187 321.1541666666666 460.46 321.1541666666666C414.3902471182813 321.1541666666666 377.0433333333333 283.8072528817186 377.0433333333333 237.7375z M171.0041666666667 237.7375C171.0041666666667 191.6677471182812 208.3510804516146 154.3208333333332 254.4208333333333 154.3208333333332C300.490586215052 154.3208333333332 337.8375 191.6677471182812 337.8375 237.7375C337.8375 283.8072528817186 300.490586215052 321.1541666666666 254.4208333333333 321.1541666666666C208.3510804516146 321.1541666666666 171.0041666666667 283.8072528817186 171.0041666666667 237.7375z M557.0565 566.2323333333334H363.6966666666667A27.527500000000003 27.527500000000003 0 0 1 336.1691666666667 538.7882500000001V346.0957500000001A27.527500000000003 27.527500000000003 0 0 1 363.6966666666667 318.7350833333334H556.9730833333334A27.527500000000003 27.527500000000003 0 0 1 584.5005833333335 346.1791666666668V538.8716666666667A27.527500000000003 27.527500000000003 0 0 1 556.9730833333334 566.2323333333334zM529.529 373.5398333333333H391.2241666666668V511.3441666666666H529.4455833333334V373.7066666666667z M1240.3224166666666 933.2656666666666H1038.1204166666666V968.4675A30.5305 30.5305 0 0 1 976.976 968.4675V933.2656666666666H810.4763333333333V968.4675A30.5305 30.5305 0 0 1 749.2485 968.4675V933.2656666666666H582.7488333333333V968.4675A30.5305 30.5305 0 0 1 521.6044166666667 968.4675V933.2656666666666H355.10475V968.4675A30.5305 30.5305 0 0 1 293.9603333333333 968.4675V933.2656666666666H91.7583333333333A91.75833333333334 91.75833333333334 0 0 1 0 841.841V93.5100833333333A91.75833333333334 91.75833333333334 0 0 1 91.7583333333333 2.0020000000001H1240.3224166666666A91.75833333333334 91.75833333333334 0 0 1 1332.08075 93.5100833333333V841.6741666666667A91.75833333333334 91.75833333333334 0 0 1 1240.3224166666666 933.18225zM1240.3224166666666 62.9795833333334H91.6749166666667A30.5305 30.5305 0 0 0 61.1444166666667 93.5100833333333V841.6741666666667C61.1444166666667 858.5243333333333 74.9081666666667 872.2046666666666 91.7583333333333 872.2046666666666H293.9603333333333V837.0028333333333A30.5305 30.5305 0 0 1 355.10475 837.0028333333333V872.2046666666666H521.6044166666667V837.0028333333333A30.5305 30.5305 0 0 1 582.7488333333333 837.0028333333333V872.2046666666666H749.2485V837.0028333333333A30.5305 30.5305 0 0 1 810.4763333333333 837.0028333333333V872.2046666666666H976.976V837.0028333333333A30.5305 30.5305 0 0 1 1038.1204166666666 837.0028333333333V872.2046666666666H1240.3224166666666C1257.1725833333335 872.2046666666666 1270.9363333333336 858.5243333333333 1270.9363333333336 841.7575833333333V93.4266666666665A30.613916666666665 30.613916666666665 0 0 0 1240.3224166666666 62.8961666666666z" />
    <glyph glyph-name="call"
      unicode="&#xEA06;"
      horiz-adv-x="1001" d=" M201.826625 335.5852500000001A1061.935875 1061.935875 0 0 1 555.0545 58.9338750000001C606.731125 34.4093750000001 675.800125 5.3803750000001 752.752 0.4379375C757.50675 0.1876875 762.136375 0 766.8285625 0C818.5051875 0 859.9841250000001 17.8303125 893.8304374999999 54.5545A4.504499999999999 4.504499999999999 0 0 1 894.64375 55.6180625C906.6557499999998 70.1325625 920.294375 83.1455625 934.68375 97.097A963.4625 963.4625 0 0 1 963.9004375 126.126C1008.0695625 172.172 1008.0695625 230.605375 963.4625 275.275L838.8380000000001 399.8995C817.6918750000001 421.8589374999999 792.3540625 433.4955625 765.8275625000001 433.4955625C739.2385 433.4955625 713.7755625000001 421.8589375 692.0038125000001 400.0871875000001L617.7421250000001 325.8255000000001A394.64425 394.64425 0 0 1 597.1590625000001 336.6488125A256.50624999999997 256.50624999999997 0 0 0 574.3863125 349.09875C506.7562500000001 392.016625 445.3824375000001 448.0100625 386.6988125000001 520.0195C356.9816250000001 557.557 337.0867500000001 589.0885000000001 323.1978750000001 621.245625C342.6548125000001 638.8256875 360.9230625000001 657.2816250000001 378.5656875000001 675.3621875000001C384.8219375000001 681.8061250000001 391.2033125000001 688.1875 397.6472500000001 694.6314375000001C420.0446250000001 717.0288125 432.0566250000001 742.99225 432.0566250000001 769.3310625C432.0566250000001 795.6073125 420.2323125000001 821.5707500000001 397.6472500000001 843.9681250000001L335.8355 905.779875C328.5782500000001 913.037125 321.7589375000001 920.1066875 314.6893750000001 927.3639375A1137.6990624999999 1137.6990624999999 0 0 1 272.5848125 969.0305625C251.1884375 989.989 226.100875 1001 199.574375 1001C173.2355625 1001 147.89775 989.989 125.750625 968.842875L48.173125 891.265375C19.9574375 863.11225 3.9414375 828.828 0.625625 789.2259375C-3.3158125 739.6764375 5.8183125 686.9988125 29.4669375 623.3101875C65.7531875 524.7742499999999 120.5579375 433.307875 201.826625 335.5852500000001zM51.30125 784.8465625C53.80375 812.436625 64.439375 835.5221875 84.2716875 855.4170625L161.41125 932.556625C173.42325 944.19325 186.6865 950.19925 199.574375 950.19925C212.212 950.19925 225.099875 944.19325 236.9241875 932.1186875C250.8130625000001 919.293375 263.8260625 905.8424375 277.9651875 891.4530625L299.54925 869.5561875L361.361 807.681875C374.1863125 794.8565625 380.8179375 781.781 380.8179375 768.893125C380.8179375 756.0678125 374.1863125 742.99225 361.361 730.104375L342.09175 710.584875C322.7599375 691.1279374999999 304.7419375 672.672 284.7845 655.029375L283.7835 653.9658125C266.5788125 636.761125 269.269 620.36975 273.398125 607.9198125L274.02375 606.2931874999999C289.9771875 567.8798125000001 312.186875 531.4058749999999 346.8465 487.862375C409.0336249999999 411.0981875 474.5991249999999 351.6012500000001 546.7962499999999 305.7429375000001C555.6801249999999 299.924625 565.2521874999999 295.3575625 574.1360624999999 290.7905A256.50624999999997 256.50624999999997 0 0 0 596.9713749999999 278.3405625000001L599.2861875 277.0893125C606.1054999999999 273.5858125000001 612.7371249999999 271.896625 619.3687499999999 271.896625C635.9478124999999 271.896625 646.771125 282.53225 650.2746249999999 286.03575L727.8521249999999 363.6132500000001C739.864125 375.6252500000001 752.9396874999999 382.0691875000001 765.8275624999999 382.0691875000001C781.5933124999999 382.0691875000001 794.4186249999999 372.3094375000001 802.5517499999999 363.6132500000001L927.6141874999998 238.7385000000001C952.5140625 213.8386250000001 952.2638124999997 186.8741875000001 926.9885625 160.5353750000001C918.2298124999998 151.1510000000001 909.1582499999998 142.2671250000001 899.3984999999999 133.0078750000001C884.8839999999999 118.86875 869.7438749999999 104.3542500000001 856.0426874999998 87.9628750000001C832.2063749999999 62.2496875000001 803.8029999999999 50.1751250000001 767.0788124999998 50.1751250000001C763.5127499999999 50.1751250000001 759.8215624999999 50.425375 756.2554999999999 50.6130625000001C688.2500624999999 54.9924375000001 624.9993749999999 81.5189375000001 577.4518749999999 104.104A1008.882875 1008.882875 0 0 0 241.2409999999998 367.4921250000001C163.91375 460.7728125 111.7991875 547.421875 77.3898125 640.3271875C56.056 697.3841875 47.9854375 743.2425000000001 51.30125 784.909125z" />
    <glyph glyph-name="chat"
      unicode="&#xEA07;"
      horiz-adv-x="1112.2222222222222" d=" M1021.5205 999.8877777777778H90.6461111111111C40.6517222222222 999.8877777777778 0 958.2906666666667 0 907.0172222222222V349.7938888888889C0 298.5204444444445 40.7073333333333 256.8677222222223 90.7017222222222 256.8677222222223H143.7547222222222V27.5275C143.7547222222222 16.8501666666666 150.0387777777778 7.1738333333334 159.7151111111111 3.0586111111111A25.30305555555556 25.30305555555556 0 0 1 187.9099444444445 8.8421666666666L430.0963333333334 256.8677222222222H1021.5761111111112C1071.6261111111112 256.8677222222222 1112.2222222222222 298.5204444444445 1112.2222222222222 349.7382777777778V907.0172222222222C1112.2222222222222 958.2350555555556 1071.6261111111112 999.8877777777778 1021.5761111111112 999.8877777777778zM1021.5205 309.8095H419.3077777777778C412.6344444444445 309.8095 406.5172222222223 307.1957777777777 401.9571111111112 302.9137222222222L401.8458888888889 302.8024999999999L400.9005 301.9127222222221L195.4174444444445 91.4802777777777V283.3386111111111C195.4174444444445 284.2283888888888 195.4174444444445 285.0625555555555 195.3062222222222 285.7855A26.137222222222224 26.137222222222224 0 0 1 169.5582777777778 309.8095H90.6461111111111A39.48388888888889 39.48388888888889 0 0 0 51.7183333333333 349.7382777777778V907.0172222222222A39.48388888888889 39.48388888888889 0 0 0 90.6461111111111 946.946H1021.5761111111112A39.48388888888889 39.48388888888889 0 0 0 1060.503888888889 907.0172222222222V349.7938888888889A39.48388888888889 39.48388888888889 0 0 0 1021.5761111111112 309.8095000000001z M377.9331111111112 806.5279444444444H227.2270000000001A26.137222222222224 26.137222222222224 0 0 1 201.3122222222222 780.0014444444445A26.137222222222224 26.137222222222224 0 0 1 227.1713888888889 753.5305555555556H377.9331111111111A26.137222222222224 26.137222222222224 0 0 1 403.7922777777778 780.0014444444445A26.137222222222224 26.137222222222224 0 0 1 377.9331111111111 806.5279444444445zM646.7572222222223 654.8764444444444H227.1713888888889A26.137222222222224 26.137222222222224 0 0 1 201.3122222222222 628.4055555555556A26.137222222222224 26.137222222222224 0 0 1 227.1713888888889 601.9346666666667H646.7572222222223A26.137222222222224 26.137222222222224 0 0 1 672.6163888888889 628.4055555555556A26.137222222222224 26.137222222222224 0 0 1 646.7572222222223 654.8764444444444zM885.0508333333333 806.5279444444444H528.972888888889A26.137222222222224 26.137222222222224 0 0 1 503.1137222222223 780.0014444444445A26.137222222222224 26.137222222222224 0 0 1 528.972888888889 753.5305555555556H885.0508333333333A26.137222222222224 26.137222222222224 0 0 1 910.91 780.0014444444445A26.137222222222224 26.137222222222224 0 0 1 885.0508333333333 806.5279444444445zM885.0508333333333 654.8764444444444H791.3461111111112A26.137222222222224 26.137222222222224 0 0 1 765.4869444444445 628.4055555555556A26.137222222222224 26.137222222222224 0 0 1 791.3461111111112 601.9346666666667H884.9952222222223A26.137222222222224 26.137222222222224 0 0 1 910.854388888889 628.4055555555556A26.137222222222224 26.137222222222224 0 0 1 884.9952222222223 654.8764444444444zM461.4053888888889 503.2805555555556H227.1713888888889A26.137222222222224 26.137222222222224 0 0 1 201.3122222222222 476.7540555555555A26.137222222222224 26.137222222222224 0 0 1 227.1713888888889 450.2831666666667H461.4053888888889A26.137222222222224 26.137222222222224 0 0 1 487.2645555555556 476.7540555555555A26.137222222222224 26.137222222222224 0 0 1 461.4053888888889 503.2249444444444zM885.0508333333333 503.2805555555556H598.8760555555555A26.137222222222224 26.137222222222224 0 0 1 572.9612777777778 476.7540555555555A26.137222222222224 26.137222222222224 0 0 1 598.8760555555555 450.2831666666667H885.0508333333333A26.137222222222224 26.137222222222224 0 0 1 910.91 476.7540555555555A26.137222222222224 26.137222222222224 0 0 1 885.0508333333333 503.2249444444444z" />
    <glyph glyph-name="checkbox"
      unicode="&#xEA08;"
      horiz-adv-x="1365" d=" M43.134 450.45A53.872 53.872 0 0 0 28.028 485.485C28.028 495.495 33.033 510.51 43.134 520.52L113.568 590.59A48.86700000000001 48.86700000000001 0 0 0 184.093 590.59L189.098 585.585L466.011 290.2900000000001C476.0210000000001 280.28 491.2180000000001 280.28 501.2280000000001 290.2900000000001L1175.902 985.985H1180.907A48.86700000000001 48.86700000000001 0 0 0 1251.432 985.985L1321.866 915.915A48.23000000000001 48.23000000000001 0 0 0 1321.866 845.845L516.334 15.0149999999999A45.864000000000004 45.864000000000004 0 0 0 481.1169999999999 0A45.864000000000004 45.864000000000004 0 0 0 445.8999999999999 15.0149999999999L53.144 435.4350000000001L43.134 450.45z" />
    <glyph glyph-name="clock"
      unicode="&#xEA09;"
      horiz-adv-x="1001" d=" M500.5 1001C225.225 1001 0 775.775 0 500.5S225.225 0 500.5 0S1001 225.225 1001 500.5S775.775 1001 500.5 1001zM500.5 100.1C280.2800000000001 100.1 100.1 280.2800000000001 100.1 500.5000000000001C100.1 720.72 280.28 900.9 500.5 900.9C720.7199999999999 900.9 900.9 720.72 900.9 500.5000000000001C900.9 280.2800000000001 720.7199999999999 100.1 500.4999999999999 100.1z M525.525 750.75H450.45V450.4499999999999L710.71 290.29L750.75 355.355L525.525 490.49z" />
    <glyph glyph-name="close"
      unicode="&#xEA0A;"
      horiz-adv-x="1001" d=" M598.1976 500.5L980.8799 883.0822000000001A69.06899999999997 69.06899999999997 0 0 1 883.1822999999999 980.7798L500.5 598.1976L117.9178 980.7798A69.06899999999997 69.06899999999997 0 0 1 20.2202 883.0822000000001L402.8024 500.5L20.2202 117.8177000000001A69.06899999999997 69.06899999999997 0 0 1 117.9178 20.1201000000001L500.5 402.8024000000001L883.1822999999999 20.1201000000001A69.36929999999998 69.36929999999998 0 0 1 980.8799 20.1201000000001A69.36929999999998 69.36929999999998 0 0 1 980.8799 117.8177000000001L598.1976 500.5z" />
    <glyph glyph-name="email"
      unicode="&#xEA0B;"
      horiz-adv-x="1228.5" d=" M117.845 691.1904999999999C133.315 679.8154999999999 180.18 646.1455 258.258 590.135A34358.142 34358.142 0 0 0 437.7555000000001 460.7329999999999C442.3055 457.4114999999999 451.9970000000001 450.2225 466.8755 439.075C481.7085000000001 427.973 494.039 419.0094999999999 503.8215 412.1389999999999C513.6495 405.3139999999999 525.525 397.579 539.448 389.1159999999999C553.4165 380.6075 566.5205 374.1919999999999 578.851 370.0059999999999C591.1815 365.6834999999999 602.602 363.5904999999999 613.1125 363.5904999999999H614.4775C624.9879999999999 363.5904999999999 636.4084999999999 365.6834999999999 648.7389999999999 369.9604999999999C661.0695 374.1919999999999 674.2189999999999 380.6075 688.1419999999999 389.0704999999999C702.0649999999999 397.6244999999999 713.9404999999999 405.2684999999999 723.7684999999999 412.1389999999999C733.5964999999999 418.964 745.8814999999998 427.973 760.76 439.075C775.593 450.2224999999999 785.3299999999999 457.4114999999999 789.88 460.7329999999999C831.8765000000001 490.9904999999999 938.7559999999997 567.7944999999999 1110.473 691.1904999999999A331.5585 331.5585 0 0 1 1194.011 778.4139999999999C1216.397 812.4479999999999 1227.59 848.1654999999998 1227.59 885.4754999999999A110.56500000000003 110.56500000000003 0 0 1 1195.0575 965.6465C1173.354 987.805 1147.6465 998.9525 1117.935 998.9525H109.655C74.4835 998.9525 47.411 986.6675 28.483 962.0975C9.464 937.5275 0 906.7695 0 869.9145C0 840.1120000000001 12.558 807.8525 37.674 773.0905C62.79 738.3285 89.544 711.0285 117.845 691.1904999999999z M1159.067 615.2964999999999C1009.3265 510.3734999999999 895.5765 428.7920000000001 817.9535 370.6430000000001C791.9275 350.8050000000001 770.8154999999999 335.2895000000001 754.572 324.2330000000001C738.3739999999999 313.0855000000002 716.807 301.7560000000001 689.8255 290.1535C662.8895 278.5965000000001 637.819 272.8180000000001 614.523 272.8180000000001H613.1125C589.8165 272.8180000000001 564.7005 278.5965000000001 537.7645 290.1535000000001C510.8284999999999 301.7560000000002 489.216 313.0855000000002 473.018 324.1875000000001C456.8199999999999 335.2895000000001 435.708 350.8050000000001 409.682 370.6430000000001C347.984 417.4625 234.507 498.9985 69.2055 615.2964999999999A366.73 366.73 0 0 0 0 677.04V114.023C0 82.7645 10.738 56.1015 32.214 33.852C53.6445 11.648 79.4885 0.5005 109.6095 0.5005H1117.9805C1148.147 0.5005 1173.9455 11.648 1195.4215 33.852A111.15650000000001 111.15650000000001 0 0 1 1227.59 114.023V676.9945C1207.9795 654.3354999999999 1185.1384999999998 633.7695 1159.0669999999998 615.2964999999999z" />
    <glyph glyph-name="facebook"
      unicode="&#xEA0C;"
      horiz-adv-x="536.25" d=" M526.77625 836.1925L431.53825 836.121C356.8565 836.121 342.4135 801.3005 342.4135 750.178V637.494H520.48425L520.4485 460.9605H342.4135V8.0080000000002H156.585V460.9605000000001H1.32275V637.4940000000001H156.62075V767.6240000000001C156.62075 918.775 250.64325 1001 387.99475 1001L526.77625 1000.7855V836.15675z" />
    <glyph glyph-name="forward"
      unicode="&#xEA0D;"
      horiz-adv-x="1274" d=" M0 595.049L405.951 1001V820.547H811.8109999999999C1021.111 820.547 1190.8259999999998 650.923 1190.8259999999998 441.623V44.7720000000001C1190.8259999999998 254.0720000000001 1021.1109999999998 423.5140000000001 811.8109999999999 423.5140000000001H405.951V189.0070000000002L0 595.14z" />
    <glyph glyph-name="linkedin"
      unicode="&#xEA0E;"
      horiz-adv-x="1042.7083333333335" d=" M12.9295833333333 674.8408333333333H236.9033333333334V0.4170833333332H12.9295833333333zM971.095125 613.1125C924.0898333333334 664.6222916666666 861.9027083333335 690.3980416666666 784.6171666666668 690.3980416666666C756.1303750000001 690.3980416666666 730.2295000000001 686.8528333333333 706.9562500000002 679.8458333333333C683.6412916666668 672.7971249999999 663.9966666666669 662.9122499999999 647.9389583333335 650.2329166666666A289.7060833333333 289.7060833333333 0 0 1 609.6507083333336 614.8642499999999A291.9583333333333 291.9583333333333 0 0 1 583.1659166666669 578.8699583333332V674.7574166666666H360.0680416666667L360.735375 642.0580833333333C361.1941666666666 620.2863333333332 361.4444166666667 553.177625 361.4444166666667 440.6485416666667C361.4444166666667 328.1611666666668 361.0273333333334 181.3895416666667 360.0680416666667 0.4170833333334H583.207625V376.7096666666668C583.207625 399.8160833333334 585.6684166666666 418.2094583333334 590.6317083333333 431.806375A144.47766666666666 144.47766666666666 0 0 0 633.7164166666666 489.9895C652.90225 505.6718333333333 676.7594166666667 513.4712916666667 705.2462083333334 513.4712916666667C744.1183749999999 513.4712916666667 772.7302916666666 499.9995 791.0402499999999 473.0142083333334C809.3502083333333 445.9872083333334 818.4843333333333 408.6999583333334 818.4843333333333 361.0690416666667V0.4170833333332H1041.6239166666667V386.8864999999999C1041.6239166666667 486.2774583333332 1018.1004166666665 561.6444166666665 971.095125 613.1542083333331zM126.126 999.3316666666668C88.5885 999.3316666666668 58.2248333333333 988.3206666666666 34.909875 966.2986666666666C11.6783333333333 944.318375 0 916.540625 0 882.9654166666667C0 849.8489999999999 11.3029583333333 822.1546666666667 33.908875 799.9658333333333C56.5147916666667 777.7352916666666 86.33625 766.5991666666666 123.4149583333333 766.5991666666666H124.7913333333333C162.7459166666667 766.5991666666666 193.4015416666667 777.6935833333333 216.6747916666667 799.9658333333333C239.9480416666667 822.1546666666667 251.3344166666667 849.8489999999999 250.875625 882.9654166666667C250.4585416666667 916.540625 238.9053333333334 944.2766666666666 216.341125 966.2986666666666C193.7352083333333 988.3206666666666 163.6635 999.3316666666668 126.126 999.3316666666668z" />
    <glyph glyph-name="location"
      unicode="&#xEA0F;"
      horiz-adv-x="693" d=" M585.354 898.744A334.56499999999994 334.56499999999994 0 0 1 344.3440000000001 1001A334.488 334.488 0 0 1 103.411 898.744C-15.708 776.7760000000001 -30.492 547.316 71.379 408.254L344.344 4.3889999999999L616.924 407.7149999999999C719.2570000000001 547.3159999999999 704.396 776.776 585.354 898.7439999999999zM347.501 527.835C278.971 527.835 223.146 584.969 223.146 655.193C223.146 725.417 278.971 782.628 347.501 782.628S472.01 725.3399999999999 472.01 655.193S416.185 527.835 347.578 527.835z" />
    <glyph glyph-name="message"
      unicode="&#xEA10;"
      horiz-adv-x="1430" d=" M1295.9375 993.85H134.0625A133.91949999999997 133.91949999999997 0 0 1 0 860.288V133.419C0 59.8455 60.06 0 134.0625 0H1295.9375A133.91949999999997 133.91949999999997 0 0 1 1430 133.4905000000001V860.3595C1430 933.933 1369.94 993.7785 1295.9375 993.7785zM1273.987 904.8325L715 503.36L156.013 904.8325H1273.9869999999999zM1295.9375 89.0174999999999H134.0625A44.616 44.616 0 0 0 89.375 133.4904999999999V842.9135L688.831 412.4835000000001A44.759 44.759 0 0 1 741.169 412.4835000000001L1340.625 842.9135V133.4904999999999C1340.625 108.8945 1320.605 88.946 1295.9375 88.946z" />
    <glyph glyph-name="modal-close"
      unicode="&#xEA11;"
      horiz-adv-x="1001" d=" M596.1511111111112 502.6132222222222L978.7555555555558 885.1620555555555A69.40266666666668 69.40266666666668 0 0 1 978.7555555555558 982.8707777777778A69.12461111111112 69.12461111111112 0 0 1 881.0468333333334 982.8707777777778L498.3311666666668 600.2663333333333L115.8379444444445 982.926388888889A69.12461111111112 69.12461111111112 0 0 1 18.1292222222222 885.1620555555555L400.7336666666667 502.557611111111L18.1292222222222 119.8975555555554A69.12461111111112 69.12461111111112 0 0 1 18.1292222222222 22.1888333333332A69.40266666666668 69.40266666666668 0 0 1 115.8379444444444 22.1888333333332L498.4423888888889 404.9044999999998L881.1024444444445 22.1888333333332A69.40266666666668 69.40266666666668 0 0 1 978.8111666666666 22.1888333333332A69.40266666666668 69.40266666666668 0 0 1 978.8111666666666 119.8975555555553L596.1511111111112 502.6132222222222z" />
    <glyph glyph-name="next"
      unicode="&#xEA12;"
      horiz-adv-x="1334.6666666666667" d=" M886.8860000000001 987.0972222222222A46.49088888888889 46.49088888888889 0 0 1 820.4863333333335 987.0972222222222A46.82455555555555 46.82455555555555 0 0 1 820.4863333333335 921.364888888889L1157.0447777777779 584.8064444444444H46.4908888888889A46.26844444444444 46.26844444444444 0 0 1 0 538.3155555555555A46.71333333333334 46.71333333333334 0 0 1 46.4908888888889 491.1573333333333H1157.0447777777777L820.4863333333333 155.2662222222221A47.60311111111111 47.60311111111111 0 0 1 820.4863333333333 88.8665555555555A46.49088888888889 46.49088888888889 0 0 1 886.8859999999999 88.8665555555555L1303.0795555555553 505.060111111111A45.71233333333333 45.71233333333333 0 0 1 1303.0795555555553 570.7924444444443L886.8860000000001 987.0972222222222z" />
    <glyph glyph-name="no-avatar"
      unicode="&#xEA13;"
      horiz-adv-x="1358.5" d=" M474.0450000000001 418.99C474.0450000000001 305.263524314843 565.2781751032301 213.0700000000001 677.82 213.0700000000001C790.36182489677 213.0700000000001 881.595 305.263524314843 881.595 418.99C881.595 532.716475685157 790.36182489677 624.91 677.82 624.91C565.2781751032301 624.91 474.0450000000001 532.716475685157 474.0450000000001 418.99z M1265.9074999999998 836.264H1034.605C1023.0935 847.1320000000001 1011.0815 862.576 1011.0815 879.736V939.4385A59.48799999999999 59.48799999999999 0 0 1 951.8795 999.2125H404.3325000000001A59.48799999999999 59.48799999999999 0 0 1 345.1305 939.4385V879.736C345.1305 862.576 333.1185 847.132 321.6070000000001 836.264H90.4475C40.469 836.264 0 811.3105 0 780.5654999999999V56.9855C0 26.2405000000001 40.469 1.2155000000001 90.4475 1.2155000000001H1265.9075C1315.8145000000002 1.2155000000001 1356.2835 26.2405000000001 1356.2835 56.9855V780.494C1356.2835 811.239 1315.8145000000002 836.1925 1265.9075 836.1925zM678.1774999999998 133.6335C522.0929999999998 133.6335 395.6094999999999 261.261 395.6094999999999 418.7755C395.6094999999999 576.2185 522.0929999999998 703.846 678.1774999999998 703.846C834.1904999999998 703.846 960.6739999999998 576.2185 960.6739999999998 418.7755C960.6739999999998 261.261 834.1904999999998 133.6335 678.1774999999998 133.6335z M1026.74 640.64C1026.74 601.1516403870983 1058.7516403870982 569.14 1098.24 569.14C1137.7283596129016 569.14 1169.74 601.1516403870983 1169.74 640.64C1169.74 680.1283596129017 1137.7283596129016 712.14 1098.24 712.14C1058.7516403870982 712.14 1026.74 680.1283596129017 1026.74 640.64z" />
    <glyph glyph-name="notification"
      unicode="&#xEA14;"
      horiz-adv-x="1001" d=" M958.4574999999998 248.0978500000001C868.7678999999998 325.9756500000001 785.785 435.88545 785.785 710.25955C785.785 869.1683 657.0563999999999 998.4975 498.84835 998.4975C340.6403 998.4975 211.86165 869.21835 211.86165 710.3096C211.86165 435.68525 128.9288 325.9256000000001 39.18915 248.0978500000001A114.3142 114.3142 0 0 1 0 161.9618000000001C0 143.9438000000001 14.6146 129.2291000000001 32.6326 129.2291000000001H342.4421A160.26009999999997 160.26009999999997 0 0 1 498.84835 1.5015000000001A160.26009999999997 160.26009999999997 0 0 1 655.2546 129.2291000000001H965.0641C983.0821 129.2291000000001 997.6967 143.8937500000001 997.6967 162.0118500000001C997.6967 195.1950000000002 983.3824 226.5763500000001 958.4575 248.0978500000002zM498.84835 67.067A94.69459999999997 94.69459999999997 0 0 0 410.15975 129.2291000000001H587.53695A94.69459999999997 94.69459999999997 0 0 0 498.84835 67.067zM78.078 194.7946000000001A48.14809999999999 48.14809999999999 0 0 0 81.8818 198.4983000000001C218.7185 317.1168000000002 277.0768 470.2197500000001 277.0768 710.25955C277.0768 833.0322000000001 376.5761999999999 932.88195 498.7982999999999 932.88195C621.0204 932.88195 720.46975 833.0322000000001 720.46975 710.25955C720.46975 470.4199500000001 778.8780999999999 317.3670500000001 915.76485 198.44825A48.598549999999996 48.598549999999996 0 0 0 919.56865 194.7946000000001H78.078z" />
    <glyph glyph-name="plus"
      unicode="&#xEA15;"
      horiz-adv-x="1001" d=" M946.389888888889 570.4587777777778H570.1807222222222V946.6679444444444C570.1807222222222 963.8517777777778 546.8796666666667 1001 500.3331666666667 1001S430.5412222222223 963.8517777777778 430.5412222222223 946.6679444444444V570.4587777777778H54.2764444444444C37.1482222222222 570.4587777777778 0 547.2133333333334 0 500.6668333333333S37.1482222222222 430.8192777777778 54.2764444444444 430.8192777777778H430.5412222222223V54.610111111111C430.5412222222223 37.4262777777776 453.7866666666667 0.2780555555554 500.3331666666667 0.2780555555554S570.1807222222222 37.4262777777776 570.1807222222222 54.610111111111V430.8192777777778H946.389888888889C963.5737222222224 430.8192777777778 1000.7219444444446 454.1203333333333 1000.7219444444446 500.6668333333333S963.5181111111112 570.4587777777778 946.389888888889 570.4587777777778z" />
    <glyph glyph-name="rating-half"
      unicode="&#xEA16;"
      horiz-adv-x="1084.4166666666667" d=" M1058.9745833333334 613.1125C1058.9745833333334 628.6279999999999 1047.1294166666669 638.3043333333333 1023.3556666666668 642.1415L703.8698333333334 688.1875L560.6434166666667 975.1408333333334C552.6354166666667 992.4080833333334 542.2917500000001 1001 529.529 1001S506.3391666666667 992.4080833333334 498.3311666666667 975.1408333333334L355.10475 688.1875L35.6189166666666 642.1415C11.8451666666667 638.3043333333333 0 628.6279999999999 0 613.1125C0 604.2703333333333 5.3386666666667 594.1769166666666 15.8491666666667 582.8322499999999L247.6640833333334 359.5258333333333L192.94275 44.2108333333332C192.1085833333334 38.28825 191.6915 34.0339999999999 191.6915 31.5314999999999C191.6915 22.6893333333333 193.8603333333333 15.2652499999999 198.3648333333333 9.1758333333332C202.7859166666667 3.0029999999999 209.45925 0 218.3848333333333 0C225.97575 0 234.48425 2.5024999999999 243.8269166666667 7.5074999999999L529.6124166666667 156.40625L815.3145000000001 7.5909166666665C824.2400833333334 2.5859166666665 832.7485833333334 0 840.7565833333334 0A22.5225 22.5225 0 0 1 860.1926666666668 9.1758333333332A37.037000000000006 37.037000000000006 0 0 1 866.8660000000001 31.5314999999999C866.8660000000001 37.037 866.6991666666668 41.2078333333333 866.1986666666669 44.1274166666666L811.3939166666668 359.5258333333333L1042.4580833333334 582.8322499999999C1053.4690833333334 593.6764166666667 1058.9745833333334 603.8532499999999 1058.9745833333334 613.1125z M1058.9745833333334 613.1125C1058.9745833333334 628.6279999999999 1047.1294166666669 638.3043333333333 1023.3556666666668 642.1415L703.8698333333334 688.1875L560.6434166666667 975.1408333333334C552.6354166666667 992.4080833333334 542.2917500000001 1001 529.529 1001S529.529 156.40625 529.529 156.40625L815.2310833333333 7.5909166666665C824.1566666666666 2.5859166666665 832.6651666666667 0 840.6731666666667 0A22.5225 22.5225 0 0 1 860.1092500000001 9.1758333333332A37.037000000000006 37.037000000000006 0 0 1 866.7825833333334 31.5314999999999C866.7825833333334 37.037 866.61575 41.2078333333333 866.1152500000002 44.1274166666666L811.3939166666668 359.5258333333333L1042.4580833333334 582.8322499999999C1053.4690833333334 593.6764166666667 1058.9745833333334 603.8532499999999 1058.9745833333334 613.1125z" />
    <glyph glyph-name="rating"
      unicode="&#xEA17;"
      horiz-adv-x="1063.5625" d=" M1060.1215625 615.4273125C1060.1215625 631.0679375 1048.2346874999998 640.7025625 1024.4609375 644.4563125L705.0168125 690.5023125L561.81125 977.4765C553.7406875 994.74375 543.3553125000001 1003.377375 530.655125 1003.377375C517.8923749999999 1003.377375 507.507 994.74375 499.4364375 977.4765L356.230875 690.5023125L36.78675 644.4563125C13.013 640.7025625000001 1.126125 631.005375 1.126125 615.4273125C1.126125 606.6685625 6.4439375 596.5334375 17.017 585.1470625L248.6859375 361.8615L193.94375 46.5465C193.1304375 40.6030625 192.6925 36.4113749999999 192.6925 33.908875C192.6925 25.0875625 194.94475 17.642625 199.3866875 11.5115C203.828625 5.380375 210.5228125 2.3773749999999 219.4066875 2.3773749999999C227.0393125 2.3773749999999 235.5478125 4.8798749999999 244.869625 9.8848749999999L530.5925625 158.7836249999998L816.3780624999999 9.8848749999999C825.3245000000001 4.8798749999999 833.7704375 2.3773749999999 841.841 2.3773749999999A22.5225 22.5225 0 0 1 861.235375 11.5115A37.037 37.037 0 0 1 867.9295625 33.908875A94.469375 94.469375 0 0 1 867.3039375 46.5465L812.56175 361.8615L1043.5425 585.209625C1054.6160625 596.0954999999999 1060.1215625 606.2306249999999 1060.1215625 615.4273125z" />
    <glyph glyph-name="search"
      unicode="&#xEA18;"
      horiz-adv-x="1001" d=" M988.7655555555556 71.0709999999999L748.0806666666668 311.7558888888888A421.9771111111112 421.9771111111112 0 0 1 421.8102777777778 1001A421.8658888888889 421.8658888888889 0 1 1 421.8102777777778 157.3238333333334A419.64144444444446 419.64144444444446 0 0 1 689.0772777777778 252.6968888888889L929.7065555555556 12.2344444444443A41.708333333333336 41.708333333333336 0 0 1 988.7655555555556 71.0709999999999zM421.865888888889 241.2409999999999A338.338 338.338 0 0 0 83.7503333333334 579.134111111111C83.7503333333334 765.4313333333332 235.3462222222223 917.2496666666666 421.865888888889 917.2496666666666A338.6716666666667 338.6716666666667 0 0 0 759.9814444444445 579.134111111111C759.9814444444445 392.8368888888888 608.1631111111111 241.2409999999999 421.865888888889 241.2409999999999z" />
    <glyph glyph-name="select"
      unicode="&#xEA19;"
      horiz-adv-x="1501.5" d=" M130.4636666666667 870.5363333333333A85.5855 85.5855 0 0 1 104.7713333333334 808.4743333333333C104.7713333333334 787.1196666666667 113.2798333333334 763.4293333333333 130.4636666666667 746.4123333333333L695.1945000000001 181.8483333333333C712.2115000000001 164.6645 733.5661666666667 156.156 757.0896666666667 156.156S802.1346666666667 164.6645 819.1516666666668 181.8483333333333L1383.8825000000002 746.4123333333332A87.75433333333335 87.75433333333335 0 0 1 1259.5916666666667 870.5363333333333L757.0896666666667 367.8675L254.5876666666667 870.5363333333333A87.75433333333335 87.75433333333335 0 0 1 130.4636666666667 870.5363333333333z" />
    <glyph glyph-name="twitter"
      unicode="&#xEA1A;"
      horiz-adv-x="1201.2" d=" M1201.2 881.881C1156.99584 861.861 1109.54844 848.2474 1059.69864 842.1613199999999A252.41216000000003 252.41216000000003 0 0 1 1168.00684 981.66068A489.72924 489.72924 0 0 0 1011.45044 920.39948A243.04279999999997 243.04279999999997 0 0 1 831.5907599999999 1000.07908C695.4947999999998 1000.07908 585.1845999999999 887.12624 585.1845999999999 747.82708C585.1845999999999 728.08736 587.3467599999999 708.78808 591.5909999999999 690.32964C386.7864 700.86016 205.16496 801.32052 83.6836 953.99304A255.05479999999997 255.05479999999997 0 0 1 50.37032 827.14632A253.8536 253.8536 0 0 1 159.9598 617.13652A242.04179999999997 242.04179999999997 0 0 0 48.32828 648.80816V645.6850400000001C48.32828 523.44292 133.29316 421.4610400000001 245.9657200000001 398.2378400000001C225.3451200000001 392.5521600000001 203.56336 389.3890000000001 181.06088 389.3890000000001C165.12496 389.3890000000001 149.7496 390.9906000000001 134.65452 394.0736800000001C166.04588 293.7734800000002 257.0167600000001 220.8206 364.80444 218.8186000000002A487.04656000000006 487.04656000000006 0 0 0 58.77872 110.9508400000002C38.87884 110.9508400000002 19.29928 112.1920800000002 0 114.4343200000002A684.684 684.684 0 0 1 377.69732 0.8808800000003C830.99016 0.8808800000003 1078.79772 385.3850000000002 1078.79772 718.8381200000003L1077.95688 751.5107600000002A498.73823999999996 498.73823999999996 0 0 1 1201.2 881.881z" />
    <glyph glyph-name="verify"
      unicode="&#xEA1B;"
      horiz-adv-x="1067.7333333333333" d=" M71.7383333333333 338.5382C88.7553333333333 324.7244 102.7026 307.307 101.3679333333333 295.4284666666666A191.99179999999998 191.99179999999998 0 0 1 100.1 273.8735999999999C100.1 166.166 186.5864 78.8787999999998 293.2262666666667 78.8787999999998C306.3727333333334 78.8787999999998 319.2522666666667 80.2134666666665 331.6646666666667 82.7493333333332C352.6189333333333 87.0202666666665 377.3102666666667 78.7453333333332 392.1250666666666 62.5958666666666C427.3602666666667 24.2909333333332 477.5437333333333 0.2669333333333 533.4662666666667 0.2669333333333C592.4585333333333 0.2669333333333 645.3113333333333 26.9602666666666 680.7467333333334 69.1357333333333A57.12373333333334 57.12373333333334 0 0 0 739.8057333333334 86.6198666666667C756.8894666666667 81.5481333333333 774.9742 78.8788000000001 793.7262666666667 78.8788000000001C900.3661333333334 78.8788000000001 986.8525333333334 166.1660000000001 986.8525333333334 273.8736C986.8525333333334 285.8856000000001 985.7180666666666 297.6974 983.5826 309.1088000000001C979.979 328.3280000000001 989.5886 352.3520000000001 1005.5378666666668 367.3670000000001A194.8613333333333 194.8613333333333 0 0 1 1066.9325333333334 509.7092000000001C1066.9325333333334 570.9036666666667 1038.9045333333333 625.4915333333333 995.1942000000003 661.1938666666667C978.1772 675.0744000000001 964.2299333333334 692.4918000000001 965.5646 704.3036000000001A191.5246666666667 191.5246666666667 0 0 1 966.8325333333333 725.9252000000001C966.8325333333333 833.6328000000001 880.3461333333335 920.92 773.7062666666668 920.92C760.4930666666668 920.92 747.6802666666667 919.5853333333334 735.2678666666667 917.0494666666668A67.60086666666666 67.60086666666666 0 0 0 674.7407333333334 937.1362A191.25773333333336 191.25773333333336 0 0 1 392.1250666666667 937.1362A67.66760000000001 67.66760000000001 0 0 0 331.6646666666668 917.0494666666668A192.19199999999998 192.19199999999998 0 0 1 293.2262666666668 920.92C186.5864 920.92 100.1 833.4993333333333 100.1 725.9252C100.1 715.5148 100.9008 705.3713333333333 102.5024 695.4280666666666C105.1717333333333 678.7447333333333 93.1597333333333 658.1241333333334 75.8090666666667 644.7107333333333A194.92806666666667 194.92806666666667 0 0 1 0 490.0228666666666C0 428.8284 28.028 374.3072666666667 71.7383333333333 338.5382zM275.275 483.0158666666667C279.5459333333333 490.4232666666667 290.4902 490.5567333333334 300.5002 482.0148666666668L401.2675333333334 412.2785333333334A30.697333333333333 30.697333333333333 0 0 1 416.9498666666667 407.3402666666667C427.3602666666667 407.3402666666667 435.5684666666667 414.6809333333333 443.5097333333333 421.8214000000001L765.8317333333333 738.6045333333334C786.0519333333333 760.1594000000001 805.6715333333333 767.7002666666667 818.4176 759.4920666666668A23.423399999999997 23.423399999999997 0 0 0 829.1616666666666 743.2758666666668A30.2302 30.2302 0 0 0 821.2871333333333 719.4520666666667L433.7666666666667 257.1902666666666A26.6266 26.6266 0 0 0 413.6132 246.7798666666665C404.8044000000001 246.7798666666665 396.9298666666668 251.9183333333332 391.7914 260.9273333333332L277.9443333333334 462.3285333333333C273.273 469.8026666666667 272.2052666666667 477.6772000000001 275.275 483.0158666666667z" />
    <glyph glyph-name="videocall"
      unicode="&#xEA1C;"
      horiz-adv-x="1468.1333333333334" d=" M1385.7176666666667 799.2651333333333A92.82606666666668 92.82606666666668 0 0 1 1296.4284666666667 805.3378666666666L1106.9725333333333 717.9172V721.1871333333333C1106.9725333333333 766.2988666666668 1070.2692 803.0022 1025.0907333333334 803.0022H908.9747333333333V926.7258C908.9747333333333 967.7000666666665 875.6080666666667 1001 834.7005333333334 1001H42.7093333333333A24.691333333333333 24.691333333333333 0 1 1 42.7093333333333 951.4838666666666H834.7005333333334C848.3808666666667 951.4838666666666 859.4586 940.4061333333332 859.4586 926.7925333333332V803.0022H99.8330666666667C54.7213333333333 803.0022 18.018 766.2988666666666 18.018 721.1871333333333V92.8260666666666C18.018 47.7143333333333 54.7213333333333 11.011 99.8330666666667 11.011H1025.0907333333334C1070.2692 11.011 1106.9725333333333 47.7143333333333 1106.9725333333333 92.8260666666665V96.0959999999999L1296.4284666666667 8.6753333333331A92.75933333333334 92.75933333333334 0 0 1 1385.7176666666667 14.8147999999999A92.75933333333334 92.75933333333334 0 0 1 1428.6939333333332 93.2264666666665V720.72C1428.6939333333332 752.6852666666666 1412.6779333333334 782.0479333333333 1385.7176666666667 799.2651333333333zM1057.4564 92.7593333333333A32.36566666666666 32.36566666666666 0 0 0 1025.0907333333334 60.3936666666667H99.8330666666667A32.36566666666666 32.36566666666666 0 0 0 67.4674 92.7593333333333V721.1871333333333C67.4674 739.0049333333334 82.0152666666667 753.4860666666667 99.8330666666667 753.4860666666667H1025.0907333333334C1042.9752666666668 753.4860666666667 1057.4564 739.0049333333334 1057.4564 721.1871333333333V92.8928zM1379.2445333333333 93.1597333333334C1379.2445333333333 78.0112666666666 1371.9038666666668 64.5311333333334 1359.0910666666666 56.3896666666667A42.709333333333326 42.709333333333326 0 0 0 1317.1825333333334 53.5201333333334L1106.9725333333333 150.4836666666668V663.3960666666667L1317.1825333333334 760.4263333333333A42.776066666666665 42.776066666666665 0 0 0 1359.0243333333333 757.5568A43.043 43.043 0 0 0 1379.2445333333333 720.7199999999999V93.2264666666665z" />
  </font>
</defs>
</svg>
