<svg width="21" height="18" viewBox="0 0 21 18" xmlns="http://www.w3.org/2000/svg"><!--Generator: Sketch 44.1 (41455) - http://www.bohemiancoding.com/sketch--><title>alert</title><g fill-rule="nonzero" fill="#000" opacity=".49"><path d="M9.86.177L4.566 4.175H.685a.687.687 0 0 0-.685.69v8.27c0 .382.307.69.685.69h3.88l5.296 3.998a.685.685 0 0 0 1.096-.552V.73A.685.685 0 0 0 9.86.177zM4.11 12.447h-2.74V5.554h2.74v6.893zm5.478 3.446L5.478 12.79V5.21l4.109-3.102v13.786zM17.996 1.69a.682.682 0 0 0-.968 0 .692.692 0 0 0 0 .974A8.93 8.93 0 0 1 19.63 9a8.93 8.93 0 0 1-2.602 6.336.692.692 0 0 0 0 .975.68.68 0 0 0 .968 0A10.303 10.303 0 0 0 21 9c0-2.765-1.067-5.361-3.004-7.31z"/><path d="M16.06 3.638a.682.682 0 0 0-.969 0 .692.692 0 0 0 0 .975c2.402 2.419 2.402 6.355 0 8.775a.692.692 0 0 0 0 .974.68.68 0 0 0 .968 0c2.936-2.956 2.936-7.767 0-10.724z"/></g></svg>