<svg width="16" height="17" viewBox="0 0 16 17" xmlns="http://www.w3.org/2000/svg"><!--Generator: Sketch 44.1 (41455) - http://www.bohemiancoding.com/sketch--><title>attach</title><path d="M4.276 16.422A3.983 3.983 0 0 1 1.44 15.25a3.985 3.985 0 0 1-1.172-2.838c0-1.074.416-2.082 1.172-2.837l8.298-8.299C10.925.091 12.77.144 14.03 1.403c1.259 1.26 1.313 3.104.126 4.291l-7.796 7.797a1.88 1.88 0 0 1-2.657 0 1.881 1.881 0 0 1 0-2.657l5.28-5.281a.456.456 0 1 1 .646.645l-5.281 5.28a.968.968 0 0 0 0 1.368.969.969 0 0 0 1.367 0L13.51 5.05c.82-.82.765-2.11-.126-3.002-.892-.892-2.182-.945-3.002-.126l-8.298 8.3a3.078 3.078 0 0 0-.904 2.191c0 .831.32 1.61.904 2.193a3.078 3.078 0 0 0 2.192.904c.83 0 1.61-.321 2.192-.904l8.299-8.299a.456.456 0 1 1 .645.645l-8.299 8.299a3.984 3.984 0 0 1-2.837 1.17z" fill-rule="nonzero" fill="#FFF"/></svg>