<svg width="16" height="12" viewBox="0 0 16 12" xmlns="http://www.w3.org/2000/svg"><!--Generator: Sketch 44.1 (41455) - http://www.bohemiancoding.com/sketch--><title>calendar</title><g fill-rule="nonzero" fill="#A0B0B9"><ellipse cx="12.92" cy="4.24" rx="1" ry="1"/><ellipse cx="10.45" cy="4.24" rx="1" ry="1"/><ellipse cx="7.98" cy="4.24" rx="1" ry="1"/><ellipse cx="5.52" cy="4.24" rx="1" ry="1"/><ellipse cx="3.05" cy="4.24" rx="1" ry="1"/><ellipse cx="12.92" cy="6.7" rx="1" ry="1"/><ellipse cx="10.45" cy="6.7" rx="1" ry="1"/><ellipse cx="7.98" cy="6.7" rx="1" ry="1"/><ellipse cx="3.05" cy="6.7" rx="1" ry="1"/><ellipse cx="12.92" cy="9.15" rx="1" ry="1"/><ellipse cx="10.45" cy="9.15" rx="1" ry="1"/><ellipse cx="7.98" cy="9.15" rx="1" ry="1"/><ellipse cx="5.52" cy="9.15" rx="1" ry="1"/><ellipse cx="3.05" cy="9.15" rx="1" ry="1"/><path d="M6.678 5.212H4.36a.33.33 0 0 0-.33.329v2.31a.33.33 0 0 0 .33.328h2.317a.33.33 0 0 0 .33-.329V5.54a.33.33 0 0 0-.33-.328zm-.33 2.31H4.69V5.87h1.657V7.52z"/><path d="M14.869.812h-2.424V.39a.366.366 0 0 0-.733 0v.422H9.716V.39a.366.366 0 0 0-.734 0v.422H6.986V.39a.366.366 0 0 0-.733 0v.422H4.257V.39a.366.366 0 0 0-.733 0v.422H1.1A1.1 1.1 0 0 0 0 1.908v8.971a1.1 1.1 0 0 0 1.1 1.097h13.769a1.1 1.1 0 0 0 1.1-1.097V1.91a1.1 1.1 0 0 0-1.1-1.097zm0 10.433H1.099a.366.366 0 0 1-.366-.366V1.91c0-.202.165-.366.367-.366h2.424v.422a.366.366 0 0 0 .733 0v-.422h1.996v.422a.366.366 0 0 0 .733 0v-.422h1.996v.422a.366.366 0 0 0 .734 0v-.422h1.996v.422a.366.366 0 0 0 .733 0v-.422h2.424c.202 0 .367.164.367.365v8.971a.367.367 0 0 1-.367.366z"/></g></svg>