<svg width="16" height="16" viewBox="0 0 16 16" xmlns="http://www.w3.org/2000/svg"><!--Generator: Sketch 44.1 (41455) - http://www.bohemiancoding.com/sketch--><title>call</title><path d="M3.226 10.636a16.974 16.974 0 0 0 5.646 4.422c.826.392 1.93.856 3.16.935.076.004.15.007.225.007.826 0 1.489-.285 2.03-.872a.072.072 0 0 0 .013-.017c.192-.232.41-.44.64-.663a15.4 15.4 0 0 0 .467-.464c.706-.736.706-1.67-.007-2.384l-1.992-1.992c-.338-.351-.743-.537-1.167-.537-.425 0-.832.186-1.18.534l-1.187 1.187a6.308 6.308 0 0 0-.329-.173 4.1 4.1 0 0 1-.364-.199c-1.081-.686-2.062-1.581-3-2.732-.475-.6-.793-1.104-1.015-1.618.311-.281.603-.576.885-.865.1-.103.202-.205.305-.308.358-.358.55-.773.55-1.194 0-.42-.189-.835-.55-1.193l-.988-.988c-.116-.116-.225-.229-.338-.345a18.185 18.185 0 0 0-.673-.666C4.015.176 3.614 0 3.19 0c-.421 0-.826.176-1.18.514L.77 1.754c-.451.45-.707.998-.76 1.631-.063.792.083 1.634.461 2.652.58 1.575 1.456 3.037 2.755 4.599zM.82 3.455c.04-.441.21-.81.527-1.128L2.58 1.094c.192-.186.404-.282.61-.282.202 0 .408.096.597.289.222.205.43.42.656.65l.345.35.988.989c.205.205.311.414.311.62 0 .205-.106.414-.311.62l-.308.312c-.309.311-.597.606-.916.888l-.016.017c-.275.275-.232.537-.166.736l.01.026c.255.614.61 1.197 1.164 1.893.994 1.227 2.042 2.178 3.196 2.911.142.093.295.166.437.239a4.1 4.1 0 0 1 .365.199l.037.02c.109.056.215.083.321.083.265 0 .438-.17.494-.226l1.24-1.24c.192-.192.401-.295.607-.295.252 0 .457.156.587.295l1.999 1.996c.398.398.394.829-.01 1.25-.14.15-.285.292-.441.44-.232.226-.474.458-.693.72-.381.411-.835.604-1.422.604-.057 0-.116-.004-.173-.007-1.087-.07-2.098-.494-2.858-.855a16.126 16.126 0 0 1-5.374-4.21C2.62 8.635 1.787 7.25 1.237 5.765.896 4.853.767 4.12.82 3.454z" fill-rule="nonzero" fill="#FFF"/></svg>