<svg width="20" height="18" viewBox="0 0 20 18" xmlns="http://www.w3.org/2000/svg"><!--Generator: Sketch 44.1 (41455) - http://www.bohemiancoding.com/sketch--><title>chat</title><g fill-rule="nonzero" fill="#FFF"><path d="M18.369.02H1.63C.731.02 0 .768 0 1.69v10.02c0 .922.732 1.671 1.631 1.671h.954v4.124c0 .192.113.366.287.44a.455.455 0 0 0 .507-.104l4.355-4.46H18.37c.9 0 1.63-.749 1.63-1.67V1.69C20 .769 19.27.02 18.37.02zm0 12.409H7.54c-.12 0-.23.047-.312.124l-.002.002-.017.016-3.695 3.784v-3.45c0-.016 0-.031-.002-.044a.47.47 0 0 0-.463-.432H1.63a.71.71 0 0 1-.7-.718V1.69a.71.71 0 0 1 .7-.718H18.37a.71.71 0 0 1 .7.718v10.02a.71.71 0 0 1-.7.719z"/><path d="M6.796 3.497h-2.71a.47.47 0 0 0-.466.477.47.47 0 0 0 .465.476h2.711a.47.47 0 0 0 .465-.476.47.47 0 0 0-.465-.477zM11.63 6.224H4.085a.47.47 0 0 0-.465.476.47.47 0 0 0 .465.476h7.545a.47.47 0 0 0 .465-.476.47.47 0 0 0-.465-.476zM15.915 3.497H9.512a.47.47 0 0 0-.465.477.47.47 0 0 0 .465.476h6.403a.47.47 0 0 0 .465-.476.47.47 0 0 0-.465-.477zM15.915 6.224H14.23a.47.47 0 0 0-.465.476.47.47 0 0 0 .465.476h1.684a.47.47 0 0 0 .465-.476.47.47 0 0 0-.465-.476zM8.297 8.95H4.085a.47.47 0 0 0-.465.477.47.47 0 0 0 .465.476h4.212a.47.47 0 0 0 .465-.476.47.47 0 0 0-.465-.476zM15.915 8.95h-5.146a.47.47 0 0 0-.466.477.47.47 0 0 0 .466.476h5.146a.47.47 0 0 0 .465-.476.47.47 0 0 0-.465-.476z"/></g></svg>