<svg width="15" height="11" viewBox="0 0 15 11" xmlns="http://www.w3.org/2000/svg"><!--Generator: Sketch 44.1 (41455) - http://www.bohemiancoding.com/sketch--><title>checkbox</title><path d="M.474 6.05a.592.592 0 0 1-.166-.385c0-.11.055-.275.166-.385l.774-.77a.537.537 0 0 1 .775 0l.055.055L5.121 7.81c.11.11.277.11.387 0L12.922.165h.055a.537.537 0 0 1 .775 0l.774.77a.53.53 0 0 1 0 .77l-8.852 9.13a.504.504 0 0 1-.387.165.504.504 0 0 1-.387-.165L.584 6.215l-.11-.165z" fill-rule="nonzero" fill="#3AC9D3"/></svg>