<svg width="25" height="24" viewBox="0 0 25 24" xmlns="http://www.w3.org/2000/svg"><!--Generator: Sketch 44.1 (41455) - http://www.bohemiancoding.com/sketch--><title>linkedin</title><g fill-rule="nonzero" fill="#FFF"><path d="M.31 7.82h5.37v16.17H.31zM23.283 9.3c-1.127-1.235-2.618-1.853-4.471-1.853-.683 0-1.304.085-1.862.253-.559.169-1.03.406-1.415.71a6.946 6.946 0 0 0-.918.848 7 7 0 0 0-.635.863V7.822H8.633l.016.784c.011.522.017 2.131.017 4.829 0 2.697-.01 6.216-.033 10.555h5.35v-9.022c0-.554.059-.995.178-1.321a3.464 3.464 0 0 1 1.033-1.395c.46-.376 1.032-.563 1.715-.563.932 0 1.618.323 2.057.97.439.648.658 1.542.658 2.684v8.647h5.35v-9.266c0-2.383-.564-4.19-1.691-5.425zM3.024.04c-.9 0-1.628.264-2.187.792C.28 1.359 0 2.025 0 2.83c0 .794.271 1.458.813 1.99.542.533 1.257.8 2.146.8h.033c.91 0 1.645-.266 2.203-.8.558-.532.831-1.196.82-1.99-.01-.805-.287-1.47-.828-1.998C4.645.304 3.924.04 3.024.04z"/></g></svg>