<svg width="20" height="14" viewBox="0 0 20 14" xmlns="http://www.w3.org/2000/svg"><!--Generator: Sketch 44.1 (41455) - http://www.bohemiancoding.com/sketch--><title>message</title><path d="M18.125.1H1.875A1.873 1.873 0 0 0 0 1.968v10.166C0 13.163.84 14 1.875 14h16.25A1.873 1.873 0 0 0 20 12.133V1.967C20 .938 19.16.101 18.125.101zm-.307 1.245L10 6.96 2.182 1.345h15.636zm.307 11.41H1.875a.624.624 0 0 1-.625-.622V2.211l8.384 6.02a.626.626 0 0 0 .732 0l8.384-6.02v9.922c0 .344-.28.623-.625.623z" fill-rule="nonzero" fill="#A0B0B9"/></svg>