<svg width="18" height="18" viewBox="0 0 18 18" xmlns="http://www.w3.org/2000/svg"><!--Generator: Sketch 44.1 (41455) - http://www.bohemiancoding.com/sketch--><title>modal-close</title><path d="M10.72 8.962L17.6 2.083a1.248 1.248 0 0 0 0-1.757 1.243 1.243 0 0 0-1.757 0l-6.882 6.88L2.083.325A1.243 1.243 0 0 0 .326 2.083l6.88 6.88-6.88 6.881a1.243 1.243 0 0 0 0 1.757 1.248 1.248 0 0 0 1.757 0l6.88-6.882 6.881 6.882a1.248 1.248 0 0 0 1.757 0 1.248 1.248 0 0 0 0-1.757L10.72 8.962z" fill-rule="nonzero" fill="#010002" opacity=".48"/></svg>