<svg width="19" height="14" viewBox="0 0 19 14" xmlns="http://www.w3.org/2000/svg"><!--Generator: Sketch 44.1 (41455) - http://www.bohemiancoding.com/sketch--><title>no-avatar</title><g fill-rule="nonzero" fill="#A0B0B9"><ellipse cx="9.48" cy="8.14" rx="2.85" ry="2.88"/><path d="M17.705 2.304H14.47c-.161-.152-.329-.368-.329-.608V.861a.832.832 0 0 0-.828-.836H5.655a.832.832 0 0 0-.828.836v.835c0 .24-.168.456-.329.608H1.265C.566 2.304 0 2.653 0 3.083v10.12c0 .43.566.78 1.265.78h16.44c.698 0 1.264-.35 1.264-.78V3.084c0-.43-.566-.779-1.264-.779zm-8.22 9.827c-2.183 0-3.952-1.785-3.952-3.988 0-2.202 1.769-3.987 3.952-3.987 2.182 0 3.951 1.785 3.951 3.987 0 2.203-1.769 3.988-3.951 3.988z"/><ellipse cx="15.36" cy="5.04" rx="1" ry="1"/></g></svg>