<svg width="20" height="20" viewBox="0 0 20 20" xmlns="http://www.w3.org/2000/svg"><!--Generator: Sketch 44.1 (41455) - http://www.bohemiancoding.com/sketch--><title>notification</title><path d="M19.15 15.043c-1.792-1.556-3.45-3.752-3.45-9.234C15.7 2.634 13.128.05 9.967.05c-3.161 0-5.734 2.583-5.734 5.758 0 5.487-1.657 7.68-3.45 9.235A2.284 2.284 0 0 0 0 16.764c0 .36.292.654.652.654h6.19a3.202 3.202 0 0 0 3.125 2.552 3.202 3.202 0 0 0 3.125-2.552h6.19c.36 0 .652-.293.652-.655 0-.663-.286-1.29-.784-1.72zM9.967 18.66a1.892 1.892 0 0 1-1.772-1.242h3.544a1.892 1.892 0 0 1-1.772 1.242zM1.56 16.108a.962.962 0 0 1 .076-.074c2.734-2.37 3.9-5.429 3.9-10.225 0-2.453 1.988-4.448 4.43-4.448 2.442 0 4.429 1.995 4.429 4.448 0 4.792 1.167 7.85 3.902 10.226a.971.971 0 0 1 .076.073H1.56z" fill-rule="nonzero" fill="#A0B0B9"/></svg>