<svg width="13" height="12" viewBox="0 0 13 12" xmlns="http://www.w3.org/2000/svg"><!--Generator: Sketch 44.1 (41455) - http://www.bohemiancoding.com/sketch--><title>rating-half</title><g fill-rule="nonzero" fill="none"><path d="M12.695 4.65c0-.186-.142-.302-.427-.348l-3.83-.552L6.721.31C6.625.103 6.501 0 6.348 0s-.278.103-.374.31L4.257 3.75l-3.83.552C.142 4.348 0 4.464 0 4.65c0 .106.064.227.19.363L2.969 7.69l-.656 3.78c-.01.071-.015.122-.015.152 0 .106.026.195.08.268.053.074.133.11.24.11.091 0 .193-.03.305-.09l3.426-1.785 3.425 1.784c.107.06.209.091.305.091a.27.27 0 0 0 .233-.11.444.444 0 0 0 .08-.268c0-.066-.002-.116-.008-.151L9.727 7.69l2.77-2.677c.132-.13.198-.252.198-.363z" fill="#FDB22B"/><path d="M12.695 4.65c0-.186-.142-.302-.427-.348l-3.83-.552L6.721.31C6.625.103 6.501 0 6.348 0s0 10.125 0 10.125l3.425 1.784c.107.06.209.091.305.091a.27.27 0 0 0 .233-.11.444.444 0 0 0 .08-.268c0-.066-.002-.116-.008-.151L9.727 7.69l2.77-2.677c.132-.13.198-.252.198-.363z" fill="#A0B0B9"/></g></svg>