<svg width="17" height="16" viewBox="0 0 17 16" xmlns="http://www.w3.org/2000/svg"><!--Generator: Sketch 44.1 (41455) - http://www.bohemiancoding.com/sketch--><title>rating</title><path d="M16.945 6.163c0-.25-.19-.404-.57-.464l-5.106-.736L8.98.376C8.851.1 8.685-.038 8.482-.038c-.204 0-.37.138-.499.414L5.694 4.963l-5.106.736c-.38.06-.57.215-.57.464 0 .14.085.302.254.484l3.703 3.569-.875 5.04c-.013.095-.02.162-.02.202 0 .141.036.26.107.358.071.098.178.146.32.146.122 0 .258-.04.407-.12l4.567-2.38 4.568 2.38c.143.08.278.12.407.12a.36.36 0 0 0 .31-.146.592.592 0 0 0 .107-.358 1.51 1.51 0 0 0-.01-.202l-.875-5.04 3.692-3.57c.177-.174.265-.336.265-.483z" fill-rule="nonzero" fill="#FDB22B"/></svg>