<svg width="18" height="18" viewBox="0 0 18 18" xmlns="http://www.w3.org/2000/svg"><!--Generator: Sketch 44.1 (41455) - http://www.bohemiancoding.com/sketch--><title>search</title><path d="M17.78 16.722l-4.328-4.328A7.588 7.588 0 0 0 7.585 0a7.586 7.586 0 1 0 0 15.171 7.546 7.546 0 0 0 4.806-1.715l4.327 4.324a.75.75 0 0 0 1.062-1.058zm-10.194-3.06a6.084 6.084 0 0 1-6.08-6.076c0-3.35 2.726-6.08 6.08-6.08a6.09 6.09 0 0 1 6.08 6.08c0 3.35-2.73 6.076-6.08 6.076z" fill-rule="nonzero" fill="#A0B0B9"/></svg>