<svg width="16" height="15" viewBox="0 0 16 15" xmlns="http://www.w3.org/2000/svg"><!--Generator: Sketch 44.1 (41455) - http://www.bohemiancoding.com/sketch--><title>verify</title><path d="M1.075 9.927c.255.207.464.468.444.646a2.877 2.877 0 0 0-.019.323c0 1.614 1.296 2.922 2.894 2.922.197 0 .39-.02.576-.058.314-.064.684.06.906.302.528.574 1.28.934 2.118.934.884 0 1.676-.4 2.207-1.032a.856.856 0 0 1 .885-.262c.256.076.527.116.808.116 1.598 0 2.894-1.308 2.894-2.922 0-.18-.017-.357-.049-.528-.054-.288.09-.648.329-.873a2.92 2.92 0 0 0 .92-2.133c0-.917-.42-1.735-1.075-2.27-.255-.208-.464-.469-.444-.646a2.87 2.87 0 0 0 .019-.324c0-1.614-1.296-2.922-2.894-2.922-.198 0-.39.02-.576.058a1.013 1.013 0 0 1-.907-.301 2.866 2.866 0 0 0-4.235 0 1.014 1.014 0 0 1-.906.301 2.88 2.88 0 0 0-.576-.058C2.796 1.2 1.5 2.51 1.5 4.122c0 .156.012.308.036.457.04.25-.14.559-.4.76A2.921 2.921 0 0 0 0 7.657c0 .917.42 1.734 1.075 2.27zm3.05-2.165c.064-.111.228-.113.378.015l1.51 1.045a.46.46 0 0 0 .235.074c.156 0 .279-.11.398-.217l4.83-4.747c.303-.323.597-.436.788-.313a.351.351 0 0 1 .161.243.453.453 0 0 1-.118.357L6.5 11.146a.399.399 0 0 1-.302.156c-.132 0-.25-.077-.327-.212L4.165 8.072c-.07-.112-.086-.23-.04-.31z" fill-rule="nonzero" fill="#2AC7A8"/></svg>