<svg width="22" height="15" viewBox="0 0 22 15" xmlns="http://www.w3.org/2000/svg"><!--Generator: Sketch 44.1 (41455) - http://www.bohemiancoding.com/sketch--><title>videocall</title><path d="M20.765 3.023a1.391 1.391 0 0 0-1.338-.091l-2.839 1.31v-.049c0-.676-.55-1.226-1.227-1.226h-1.74V1.113c0-.614-.5-1.113-1.113-1.113H.64a.37.37 0 1 0 0 .742h11.868c.205 0 .371.166.371.37v1.855H1.496C.82 2.967.27 3.517.27 4.193v9.416c0 .676.55 1.226 1.226 1.226h13.865c.677 0 1.227-.55 1.227-1.226v-.049l2.839 1.31a1.39 1.39 0 0 0 1.338-.092 1.39 1.39 0 0 0 .644-1.175V4.2c0-.479-.24-.919-.644-1.177zM15.846 13.61a.485.485 0 0 1-.485.485H1.496a.485.485 0 0 1-.485-.485V4.193c0-.267.218-.484.485-.484h13.865c.268 0 .485.217.485.484V13.608zm4.822-.006c0 .227-.11.429-.302.551a.64.64 0 0 1-.628.043l-3.15-1.453V5.059l3.15-1.454a.641.641 0 0 1 .627.043.645.645 0 0 1 .303.552v9.403z" fill-rule="nonzero" fill="#FFF"/></svg>