<?xml version="1.0" encoding="UTF-8"?>
<svg width="21px" height="18px" viewBox="0 0 21 18" version="1.1" xmlns="http://www.w3.org/2000/svg" xmlns:xlink="http://www.w3.org/1999/xlink">
    <!-- Generator: Sketch 44.1 (41455) - http://www.bohemiancoding.com/sketch -->
    <title>alert</title>
    <desc>Created with Sketch.</desc>
    <defs></defs>
    <g id="Pages" stroke="none" stroke-width="1" fill="none" fill-rule="evenodd" opacity="0.48901721">
        <g id="3.5-Dash-UI-components" transform="translate(-480.000000, -2041.000000)" fill-rule="nonzero" fill="#000000">
            <g id="alerts" transform="translate(465.000000, 2030.000000)">
                <g id="alert">
                    <g transform="translate(15.000000, 11.000000)" id="Shape">
                        <path d="M9.86093555,0.177440367 L4.56524414,4.17525688 L0.684796875,4.17525688 C0.306591797,4.1752156 0,4.48381651 0,4.8645 L0,13.1358303 C0,13.5165138 0.306591797,13.8251147 0.684796875,13.8251147 L4.56524414,13.8251147 L9.86093555,17.8229312 C10.3088262,18.1610505 10.9565859,17.8423349 10.9565859,17.2714954 L10.9565859,0.728834862 C10.956627,0.162165138 10.3119434,-0.16303211 9.86093555,0.177440367 Z M4.10874023,12.4465459 L1.36959375,12.4465459 L1.36959375,5.5537844 L4.10874023,5.5537844 L4.10874023,12.4465459 L4.10874023,12.4465459 Z M9.5870332,15.8929266 L5.47829297,12.7911881 L5.47829297,5.2091422 L9.5870332,2.10740367 L9.5870332,15.8929266 L9.5870332,15.8929266 Z"></path>
                        <path d="M17.9960566,1.68931651 C17.7286758,1.4201422 17.2950586,1.4201422 17.0276367,1.68931651 C16.7602148,1.95849083 16.7602148,2.39490826 17.0276367,2.66408257 C18.7059961,4.35344037 19.6303652,6.60356422 19.6304062,9 C19.6304473,11.3964771 18.7061191,13.6467661 17.0276367,15.3362477 C16.7602148,15.605422 16.7602148,16.0418394 17.0276367,16.3110138 C17.1613477,16.4456009 17.3366074,16.5129358 17.5118672,16.5129358 C17.687127,16.5129358 17.8623867,16.4456422 17.9960566,16.3110138 C19.9332246,14.3611514 21.000041,11.7646927 21,8.99995872 C20.999959,6.23534862 19.9331426,3.63901376 17.9960566,1.68931651 Z"></path>
                        <path d="M16.0594629,3.63814679 C15.792041,3.36884862 15.3584238,3.36880734 15.091043,3.63789908 C14.8235801,3.90699083 14.823416,4.34344954 15.0907559,4.61266514 C17.493082,7.03193119 17.493082,10.9683578 15.0907559,13.3876239 C14.823416,13.6568394 14.823498,14.0932982 15.091043,14.3623899 C15.2247539,14.4969358 15.3999316,14.5641468 15.5751504,14.5641468 C15.7504512,14.5641468 15.925793,14.4967706 16.0594629,14.3621422 C18.9954023,11.4055596 18.9954023,6.59477064 16.0594629,3.63814679 Z"></path>
                    </g>
                </g>
            </g>
        </g>
    </g>
</svg>