<?xml version="1.0" encoding="UTF-8"?>
<svg width="16px" height="17px" viewBox="0 0 16 17" version="1.1" xmlns="http://www.w3.org/2000/svg" xmlns:xlink="http://www.w3.org/1999/xlink">
    <!-- Generator: Sketch 44.1 (41455) - http://www.bohemiancoding.com/sketch -->
    <title>attach</title>
    <desc>Created with Sketch.</desc>
    <defs></defs>
    <g id="Pages" stroke="none" stroke-width="1" fill="none" fill-rule="evenodd">
        <g id="3.4-Dash----Settings-Contact" transform="translate(-567.000000, -816.000000)" fill-rule="nonzero" fill="#FFFFFF">
            <g id="picture" transform="translate(552.000000, 702.000000)">
                <g id="btn-copy-2" transform="translate(0.000000, 107.000000)">
                    <g id="add-file" transform="translate(15.000000, 7.000000)">
                        <path d="M4.27607423,16.4218945 C3.20125962,16.4218945 2.19363993,16.0059549 1.43868529,15.2506962 C0.683730647,14.4954375 0.267487027,13.4881219 0.267487027,12.4133073 C0.267487027,11.3387967 0.683426597,10.331177 1.43868529,9.57622237 L9.73740943,1.27749823 C10.9247223,0.0907934457 12.769694,0.14400209 14.0287626,1.40307063 C15.2878311,2.66213917 15.3419519,4.50680684 14.154639,5.69442377 L6.35850853,13.4905543 C5.62666164,14.2224012 4.43478801,14.2236174 3.70172493,13.4905543 C2.96926994,12.7577952 2.96957399,11.5659216 3.70172493,10.8337707 L8.98275884,5.55273675 C9.16093178,5.3745638 9.44947466,5.3745638 9.6276476,5.55273675 C9.80582055,5.73090969 9.80582055,6.01945257 9.6276476,6.19762551 L4.34661369,11.4786594 C3.96989649,11.8553766 3.96989649,12.4686443 4.34661369,12.8456655 C4.72393899,13.2223827 5.33690256,13.2217746 5.71361976,12.8456655 L13.5097503,5.049535 C14.3291634,4.22981784 14.2753466,2.93943221 13.3838738,2.04795939 C12.492401,1.15648657 11.2020154,1.10266983 10.3822982,1.92238699 L2.08357405,10.2211111 C1.50071137,10.8039738 1.17963521,11.5826443 1.17963521,12.4133073 C1.17963521,13.2442743 1.50071137,14.0229448 2.08357405,14.6058074 C2.66643674,15.1886701 3.44510724,15.5097463 4.27607423,15.5097463 C5.10673717,15.5097463 5.88540767,15.1886701 6.46827036,14.6058074 L14.7669945,6.30708329 C14.9451674,6.12891035 15.2337103,6.12891035 15.4118833,6.30708329 C15.5900562,6.48525624 15.5900562,6.77379911 15.4118833,6.95197206 L7.11315912,15.2506962 C6.35820448,16.0056508 5.35058479,16.4218945 4.27607423,16.4218945 Z" id="attach"></path>
                    </g>
                </g>
            </g>
        </g>
    </g>
</svg>