<?xml version="1.0" encoding="UTF-8"?>
<svg width="16px" height="16px" viewBox="0 0 16 16" version="1.1" xmlns="http://www.w3.org/2000/svg" xmlns:xlink="http://www.w3.org/1999/xlink">
    <!-- Generator: Sketch 44.1 (41455) - http://www.bohemiancoding.com/sketch -->
    <title>call</title>
    <desc>Created with Sketch.</desc>
    <defs></defs>
    <g id="Pages" stroke="none" stroke-width="1" fill="none" fill-rule="evenodd">
        <g id="3.3-Dash---Messages" transform="translate(-1101.000000, -113.000000)" fill-rule="nonzero" fill="#FFFFFF">
            <g id="messages" transform="translate(215.000000, 95.000000)">
                <g id="content-part" transform="translate(330.000000, -2.000000)">
                    <g id="topbar-copy" transform="translate(0.000000, 2.000000)">
                        <g id="btn-copy-4" transform="translate(546.000000, 10.000000)">
                            <path d="M13.226307,18.6357232 C14.8044255,20.5221716 16.7041354,22.0074596 18.8723907,23.0584335 C19.6979191,23.4496477 20.801939,23.9138002 22.0319431,23.9933692 C22.1081967,23.9966846 22.181135,24 22.2573886,24 C23.082917,24 23.745992,23.7148777 24.2863981,23.1280564 C24.2897135,23.124741 24.2963443,23.1181102 24.2996596,23.1114795 C24.4919514,22.8794032 24.7107661,22.6705346 24.939527,22.4484045 C25.0953496,22.2992126 25.2544877,22.14339 25.4069949,21.984252 C26.1131698,21.2482387 26.1131698,20.3133029 25.4003642,19.6004973 L23.4078237,17.6079569 C23.0696555,17.2565271 22.6651797,17.0708661 22.2408117,17.0708661 C21.8164437,17.0708661 21.4086526,17.2565271 21.0605382,17.6046415 L19.8736339,18.7915458 C19.7642266,18.7285537 19.6515038,18.6721923 19.5454118,18.6191463 C19.4127968,18.5528388 19.2901279,18.4898467 19.1807206,18.4202238 C18.0999083,17.7339412 17.1185573,16.8387899 16.1803061,15.6883547 C15.7062075,15.0882719 15.3879315,14.5843349 15.1658014,14.0704517 C15.4774466,13.7886448 15.7691996,13.4935765 16.0510065,13.2051388 C16.1504678,13.1023622 16.2532444,12.9995856 16.356021,12.896809 C16.7140815,12.5387484 16.9063733,12.1243266 16.9063733,11.7032739 C16.9063733,11.2822213 16.7173969,10.8677994 16.356021,10.5097389 L15.3680392,9.52175715 C15.2520011,9.40571902 15.1425937,9.29299627 15.029871,9.17695814 C14.8110562,8.95151264 14.5822954,8.71943639 14.3568499,8.51056776 C14.0153662,8.17571488 13.6142058,8 13.1898378,8 C12.7687852,8 12.3643095,8.17571488 12.0095643,8.51388313 L10.7696141,9.7538334 C10.318723,10.2047244 10.0634392,10.7517613 10.0103932,11.3849979 C9.94740104,12.1773726 10.0932775,13.0194778 10.4712303,14.037298 C11.0514209,15.6121011 11.9266799,17.0741815 13.226307,18.6357232 Z M10.8193447,11.4546208 C10.8591292,11.0136759 11.0282133,10.6456693 11.3464893,10.3273933 L12.5798088,9.09407377 C12.7721006,8.90841276 12.9842846,8.81226689 13.1898378,8.81226689 C13.3920757,8.81226689 13.597629,8.90841276 13.7866053,9.10070452 C14.0087355,9.30625777 14.2176041,9.52175715 14.4430496,9.75051803 C14.5557724,9.86655615 14.6718105,9.98259428 14.7878486,10.1019478 L15.7758304,11.0899295 C15.9813836,11.2954828 16.0874756,11.5043514 16.0874756,11.7099047 C16.0874756,11.9154579 15.9813836,12.1243266 15.7758304,12.3298798 C15.6730538,12.4326564 15.5702771,12.5387484 15.4675005,12.6415251 C15.1591706,12.9531703 14.870733,13.2482387 14.552457,13.5300456 C14.5458262,13.5366763 14.5425109,13.5399917 14.5358801,13.5466225 C14.260704,13.8217986 14.3038039,14.0837132 14.3701114,14.2826357 C14.3734267,14.2925818 14.3767421,14.2992126 14.3800575,14.3091587 C14.6353414,14.9225031 14.9900865,15.5060091 15.5437541,16.2022379 C16.5383666,17.4289266 17.5860252,18.3804393 18.7397757,19.1131372 C18.8823368,19.2059677 19.0348441,19.2789059 19.1774052,19.3518442 C19.3100202,19.4181517 19.4326891,19.4811438 19.5420964,19.5507667 C19.5553579,19.5573974 19.5653041,19.5640282 19.5785656,19.5706589 C19.6879729,19.6270203 19.7940649,19.6535433 19.9001569,19.6535433 C20.1653869,19.6535433 20.3377865,19.4844592 20.3941478,19.4280978 L21.6340981,18.1881475 C21.8263898,17.9958558 22.0352585,17.8930792 22.2408117,17.8930792 C22.4927802,17.8930792 22.6983335,18.0489018 22.8276331,18.1881475 L24.8268043,20.1840033 C25.2246493,20.5818483 25.2213339,21.0128471 24.8168581,21.4338997 C24.6776124,21.5830916 24.5317359,21.7256527 24.3759133,21.8748446 C24.143837,22.1002901 23.9018146,22.3323663 23.6829999,22.594281 C23.3017317,23.0053875 22.8475254,23.1976792 22.260704,23.1976792 C22.2043426,23.1976792 22.1446659,23.1943639 22.0883045,23.1910485 C21.0008615,23.1214256 19.9896721,22.6970576 19.2304512,22.3356817 C17.1682879,21.3377538 15.3580931,19.9220887 13.8562282,18.1251554 C12.6195933,16.636552 11.7874342,15.2507252 11.2370819,13.7654372 C10.8955983,12.8537091 10.7662987,12.1210112 10.8193447,11.4546208 Z" id="call"></path>
                        </g>
                    </g>
                </g>
            </g>
        </g>
    </g>
</svg>