<?xml version="1.0" encoding="UTF-8"?>
<svg width="20px" height="18px" viewBox="0 0 20 18" version="1.1" xmlns="http://www.w3.org/2000/svg" xmlns:xlink="http://www.w3.org/1999/xlink">
    <!-- Generator: Sketch 44.1 (41455) - http://www.bohemiancoding.com/sketch -->
    <title>chat</title>
    <desc>Created with Sketch.</desc>
    <defs></defs>
    <g id="Pages" stroke="none" stroke-width="1" fill="none" fill-rule="evenodd">
        <g id="3.1.1-Dash---Freelancer-Profile" transform="translate(-326.000000, -622.000000)" fill-rule="nonzero" fill="#FFFFFF">
            <g id="btns" transform="translate(314.000000, 609.000000)">
                <g id="btn-copy-3">
                    <g id="chat" transform="translate(12.000000, 13.000000)">
                        <path d="M18.3686719,0.01916 L1.63132812,0.01916 C0.731835937,0.01916 0,0.76856 0,1.68968 L0,11.71088 C0,12.63204 0.731835937,13.38144 1.63136719,13.38144 L2.58507812,13.38144 L2.58507812,17.5046 C2.58507812,17.69724 2.6984375,17.87088 2.8721875,17.9446 C2.92972656,17.969 2.99011719,17.98084 3.05003906,17.98084 C3.17109375,17.98084 3.29007812,17.93244 3.37902344,17.84136 L7.734375,13.3814 L18.3685937,13.3814 C19.268125,13.3814 19.9999219,12.632 19.9999219,11.71084 L19.9999219,1.68968 C20,0.76856 19.2681641,0.01916 18.3686719,0.01916 Z M18.3686719,12.42888 L7.54148438,12.42888 C7.42117188,12.42888 7.311875,12.47608 7.22933594,12.55284 C7.22859375,12.55352 7.22773438,12.55436 7.22699219,12.55504 C7.22132813,12.56036 7.21554688,12.56556 7.21015625,12.5712 L3.51523438,16.35476 L3.51523438,12.90512 C3.51523438,12.88856 3.51441406,12.87388 3.51277344,12.86092 C3.49097656,12.61864 3.2921875,12.42888 3.04988281,12.42888 L1.63132813,12.42888 C1.2446875,12.42888 0.93015625,12.10676 0.93015625,11.71084 L0.93015625,1.68968 C0.93015625,1.29376 1.2446875,0.97168 1.63132813,0.97168 L18.3686328,0.97168 C18.7553125,0.97168 19.0698047,1.29376 19.0698047,1.68968 L19.0698047,11.71088 L19.0698047,11.71088 C19.0698047,12.10676 18.7552734,12.42888 18.3686719,12.42888 Z" id="Shape"></path>
                        <path d="M6.79636719,3.49748 L4.08546875,3.49748 C3.82859375,3.49748 3.62039063,3.71076 3.62039063,3.97372 C3.62039063,4.23672 3.82859375,4.44996 4.08546875,4.44996 L6.79636719,4.44996 C7.05324219,4.44996 7.26144531,4.23668 7.26144531,3.97372 C7.26144531,3.71072 7.05320313,3.49748 6.79636719,3.49748 Z" id="Shape"></path>
                        <path d="M11.6303906,6.224 L4.08542969,6.224 C3.82855469,6.224 3.62035156,6.43728 3.62035156,6.70024 C3.62035156,6.96324 3.82855469,7.17648 4.08542969,7.17648 L11.6303906,7.17648 C11.8872266,7.17648 12.0954687,6.96328 12.0954687,6.70024 C12.0954687,6.43728 11.8872266,6.224 11.6303906,6.224 Z" id="Shape"></path>
                        <path d="M15.9146094,3.49748 L9.51199219,3.49748 C9.25511719,3.49748 9.04691406,3.71076 9.04691406,3.97372 C9.04691406,4.23672 9.25511719,4.44996 9.51199219,4.44996 L15.9146094,4.44996 C16.1714453,4.44996 16.3796875,4.23668 16.3796875,3.97372 C16.3796875,3.71068 16.1714453,3.49748 15.9146094,3.49748 Z" id="Shape"></path>
                        <path d="M15.9146094,6.224 L14.2309375,6.224 C13.9741016,6.224 13.7658594,6.43728 13.7658594,6.70024 C13.7658594,6.96328 13.9741406,7.17648 14.2309375,7.17648 L15.9146094,7.17648 C16.1714453,7.17648 16.3796875,6.96328 16.3796875,6.70024 C16.3796875,6.4372 16.1714453,6.224 15.9146094,6.224 Z" id="Shape"></path>
                        <path d="M8.29714844,8.9506 L4.08542969,8.9506 C3.82855469,8.9506 3.62035156,9.1638 3.62035156,9.42684 C3.62035156,9.68984 3.82855469,9.90308 4.08542969,9.90308 L8.29714844,9.90308 C8.55402344,9.90308 8.76222656,9.6898 8.76222656,9.42684 C8.76222656,9.1638 8.55402344,8.9506 8.29714844,8.9506 Z" id="Shape"></path>
                        <path d="M15.9146094,8.9506 L10.7685547,8.9506 C10.5117188,8.9506 10.3034766,9.1638 10.3034766,9.42684 C10.3034766,9.68984 10.5117578,9.90308 10.7685547,9.90308 L15.9146094,9.90308 C16.1714453,9.90308 16.3796875,9.6898 16.3796875,9.42684 C16.3796875,9.1638 16.1714453,8.9506 15.9146094,8.9506 Z" id="Shape"></path>
                    </g>
                </g>
            </g>
        </g>
    </g>
</svg>