<?xml version="1.0" encoding="UTF-8"?>
<svg width="10px" height="10px" viewBox="0 0 10 10" version="1.1" xmlns="http://www.w3.org/2000/svg" xmlns:xlink="http://www.w3.org/1999/xlink">
    <!-- Generator: Sketch 44.1 (41455) - http://www.bohemiancoding.com/sketch -->
    <title>close</title>
    <desc>Created with Sketch.</desc>
    <defs></defs>
    <g id="Pages" stroke="none" stroke-width="1" fill="none" fill-rule="evenodd" opacity="0.483582428">
        <g id="3.5-Dash-UI-components" transform="translate(-1110.000000, -2045.000000)" fill-rule="nonzero" fill="#010002">
            <g id="alerts" transform="translate(465.000000, 2030.000000)">
                <path d="M650.976044,19.9998467 L654.799189,16.1780642 C655.067022,15.9088236 655.067022,15.4711258 654.799189,15.2019305 C654.529948,14.9326898 654.090888,14.9326898 653.823055,15.2019305 L649.99991,19.023713 L646.178082,15.2019305 C645.908842,14.9326898 645.471144,14.9326898 645.201949,15.2019305 C644.932753,15.4711712 644.932708,15.908869 645.201949,16.1780642 L649.023731,19.9998467 L645.201949,23.8229917 C644.932708,24.0908244 644.932708,24.5299302 645.201949,24.7991255 C645.471189,25.0669582 645.908887,25.0669582 646.178082,24.7991255 L649.999865,20.9759804 L653.82301,24.7991255 C654.090843,25.0669582 654.529948,25.0669582 654.799144,24.7991255 C655.066976,24.5298848 655.066976,24.0908244 654.799144,23.8229917 L650.976044,19.9998467 Z" id="close"></path>
            </g>
        </g>
    </g>
</svg>