<?xml version="1.0" encoding="UTF-8"?>
<svg width="27px" height="22px" viewBox="0 0 27 22" version="1.1" xmlns="http://www.w3.org/2000/svg" xmlns:xlink="http://www.w3.org/1999/xlink">
    <!-- Generator: Sketch 44.1 (41455) - http://www.bohemiancoding.com/sketch -->
    <title>email</title>
    <desc>Created with Sketch.</desc>
    <defs></defs>
    <g id="Pages" stroke="none" stroke-width="1" fill="none" fill-rule="evenodd">
        <g id="1.2-Contact-us" transform="translate(-896.000000, -267.000000)" fill-rule="nonzero" fill="#FFFFFF">
            <g id="socials" transform="translate(465.000000, 264.000000)">
                <g id="email" transform="translate(431.000000, 3.000000)">
                    <path d="M2.58957422,6.8090273 C2.93087109,7.05834243 3.95966602,7.79880893 5.67601172,9.03004467 C7.39241016,10.2612804 8.70728906,11.2093002 9.62070117,11.8741588 C9.72105469,11.9470372 9.93425977,12.1054591 10.2604219,12.3496427 C10.5866367,12.5939901 10.8576914,12.7914442 11.073375,12.9420596 C11.2892168,13.0926203 11.5501465,13.2615236 11.8564277,13.4484963 C12.1626035,13.6353052 12.4512188,13.7758213 12.7222207,13.8688437 C12.9932754,13.9626303 13.2441855,14.0090868 13.4750039,14.0090868 L13.4901387,14.0090868 L13.5053262,14.0090868 C13.7361445,14.0090868 13.9871602,13.9625757 14.2582148,13.8688437 C14.5291113,13.7758213 14.8179902,13.6351414 15.1239023,13.4484963 C15.4299727,13.2613052 15.6909023,13.0925658 15.9067441,12.9420596 C16.1225859,12.7914442 16.3934297,12.5939901 16.71975,12.3496427 C17.0458594,12.1052407 17.2593281,11.9470372 17.3596816,11.8741588 C18.2829551,11.2093002 20.6319023,9.52075931 24.4057852,6.80869975 C25.1384766,6.27900744 25.7506172,5.63986104 26.2423652,4.89169727 C26.7344824,4.14386104 26.9802773,3.35933995 26.9802773,2.53857072 C26.9802773,1.85269479 26.7417598,1.2655732 26.2649355,0.777260546 C25.7881641,0.28883871 25.2234844,0.044764268 24.5712656,0.044764268 L2.40885352,0.044764268 C1.63603125,0.044764268 1.04129297,0.314878412 0.624744141,0.8551067 C0.208248047,1.39544417 0,2.07083871 0,2.88123573 C0,3.53583127 0.276117188,4.24518114 0.828087891,5.00884864 C1.38000586,5.77257072 1.96736133,6.37268486 2.58957422,6.8090273 Z" id="Shape"></path>
                    <path d="M25.4745,8.47655087 C22.1826094,10.7830571 19.683,12.5755931 17.9768848,13.8537767 C17.4047695,14.2900099 16.9406543,14.6305459 16.5842227,14.8745658 C16.227791,15.1187494 15.7537617,15.3681191 15.1614492,15.6225658 C14.5693477,15.8773945 14.0175352,16.0044268 13.5055371,16.0044268 L13.4901914,16.0044268 L13.4750566,16.0044268 C12.9631641,16.0044268 12.4110352,15.8773945 11.8189336,15.6225658 C11.226832,15.3681191 10.7524863,15.1187494 10.3961602,14.8745658 C10.0399395,14.6305459 9.57566602,14.2900099 9.00360352,13.8537767 C7.64848828,12.8251811 5.15425781,11.032536 1.52080664,8.47655087 C0.948533203,8.08197022 0.441650391,7.62968734 0,7.12063027 L0,19.4954938 C0,20.1816973 0.235775391,20.7684913 0.707589844,21.2568586 C1.17929883,21.7453896 1.74650977,21.9895732 2.40901172,21.9895732 L24.5714766,21.9895732 C25.2338203,21.9895732 25.8009785,21.7453896 26.2727402,21.2568586 C26.7446602,20.7683275 26.9803301,20.1817519 26.9803301,19.4954938 L26.9803301,7.12063027 C26.5486465,7.61915136 26.0469316,8.07143424 25.4745,8.47655087 Z" id="Shape"></path>
                </g>
            </g>
        </g>
    </g>
</svg>