<?xml version="1.0" encoding="UTF-8"?>
<svg width="25px" height="24px" viewBox="0 0 25 24" version="1.1" xmlns="http://www.w3.org/2000/svg" xmlns:xlink="http://www.w3.org/1999/xlink">
    <!-- Generator: Sketch 44.1 (41455) - http://www.bohemiancoding.com/sketch -->
    <title>linkedin</title>
    <desc>Created with Sketch.</desc>
    <defs></defs>
    <g id="Symbols" stroke="none" stroke-width="1" fill="none" fill-rule="evenodd">
        <g id="footer" transform="translate(-1310.000000, -79.000000)" fill-rule="nonzero" fill="#FFFFFF">
            <g id="socials">
                <g transform="translate(1245.000000, 77.000000)">
                    <g id="linkedin" transform="translate(65.000000, 2.000000)">
                        <rect id="Rectangle-path" x="0.308883827" y="7.82257143" width="5.36537585" height="16.1675429"></rect>
                        <path d="M23.282574,9.29937143 C22.1555239,8.06485714 20.6648633,7.44748571 18.8115034,7.44748571 C18.1286446,7.44748571 17.5079157,7.53177143 16.9496014,7.70045714 C16.3914579,7.86902857 15.9200456,8.10554286 15.5351367,8.41011429 C15.1504556,8.71468571 14.8440774,8.99742857 14.6166287,9.25834286 C14.4003417,9.50617143 14.1888383,9.79485714 13.9824601,10.1214286 L13.9824601,7.82245714 L8.63308656,7.82245714 L8.64948747,8.60565714 C8.66047836,9.12788571 8.66588838,10.7374857 8.66588838,13.4346857 C8.66588838,16.1321143 8.65506834,19.6505143 8.63331435,23.9902286 L13.9824601,23.9902286 L13.9824601,14.9681143 C13.9824601,14.4135429 14.0417426,13.9731429 14.1612187,13.6465714 C14.3890091,13.0916 14.7328018,12.6269714 15.1937358,12.2518857 C15.6546128,11.8763429 16.2261959,11.6887429 16.9092825,11.6887429 C17.8411731,11.6887429 18.5269932,12.0122857 18.9660592,12.6594286 C19.4049544,13.3065143 19.6244305,14.2011429 19.6244305,15.3432 L19.6244305,23.9897143 L24.9735763,23.9897143 L24.9735763,14.7236571 C24.9731777,12.3414857 24.4099658,10.5334857 23.282574,9.29937143 Z" id="Shape"></path>
                        <path d="M3.02408884,0.0404571429 C2.12454442,0.0404571429 1.39567198,0.3044 0.837300683,0.831771429 C0.278986333,1.35925714 0,2.0252 0,2.83022857 C0,3.624 0.27095672,4.28765714 0.812927107,4.82045714 C1.35472665,5.35331429 2.0702164,5.61988571 2.95899772,5.61988571 L2.99151481,5.61988571 C3.90210706,5.61988571 4.63656036,5.35354286 5.19470387,4.82045714 C5.75284738,4.28765714 6.02648064,3.62422857 6.01571754,2.83022857 C6.00489749,2.02525714 5.72830296,1.35925714 5.18650342,0.831771429 C4.64476082,0.304171429 3.92369021,0.0404571429 3.02408884,0.0404571429 Z" id="Shape"></path>
                    </g>
                </g>
            </g>
        </g>
    </g>
</svg>