<?xml version="1.0" encoding="UTF-8"?>
<svg width="9px" height="13px" viewBox="0 0 9 13" version="1.1" xmlns="http://www.w3.org/2000/svg" xmlns:xlink="http://www.w3.org/1999/xlink">
    <!-- Generator: Sketch 44.1 (41455) - http://www.bohemiancoding.com/sketch -->
    <title>location</title>
    <desc>Created with Sketch.</desc>
    <defs></defs>
    <g id="Pages" stroke="none" stroke-width="1" fill="none" fill-rule="evenodd">
        <g id="3.2-Dash---Freelancer" transform="translate(-342.000000, -512.000000)" fill-rule="nonzero" fill="#A0B0B9">
            <path d="M349.601538,513.327655 C348.765692,512.471545 347.654308,512 346.472308,512 C345.290077,512 344.178923,512.471545 343.343077,513.327655 C341.796231,514.911764 341.604,517.892309 342.926769,519.698127 L346.472308,524.942564 L350.012538,519.705455 C351.340615,517.892309 351.148385,514.911764 349.601538,513.327655 Z M346.513154,518.145455 C345.622615,518.145455 344.897769,517.403036 344.897769,516.490909 C344.897769,515.578782 345.622615,514.836364 346.513154,514.836364 C347.403692,514.836364 348.128538,515.578782 348.128538,516.490909 C348.128538,517.403036 347.403692,518.145455 346.513154,518.145455 Z" id="location"></path>
        </g>
    </g>
</svg>