<?xml version="1.0" encoding="UTF-8"?>
<svg width="18px" height="18px" viewBox="0 0 18 18" version="1.1" xmlns="http://www.w3.org/2000/svg" xmlns:xlink="http://www.w3.org/1999/xlink">
    <!-- Generator: Sketch 44.1 (41455) - http://www.bohemiancoding.com/sketch -->
    <title>modal-close</title>
    <desc>Created with Sketch.</desc>
    <defs></defs>
    <g id="Pages" stroke="none" stroke-width="1" fill="none" fill-rule="evenodd" opacity="0.483582428">
        <g id="2.-Signup-Welcome" transform="translate(-1351.000000, -56.000000)" fill-rule="nonzero" fill="#010002">
            <g id="hero-copy" transform="translate(-1.000000, 0.000000)">
                <g id="modal-close" transform="translate(1351.000000, 55.000000)">
                    <path d="M11.7195093,9.96238245 L18.6011703,3.08317401 C19.0832692,2.59854078 19.0832692,1.81068477 18.6011703,1.32613329 C18.1165371,0.841500064 17.3262285,0.841500064 16.8441296,1.32613329 L9.96246858,8.20534174 L3.08317838,1.32613329 C2.59854515,0.841500064 1.81068914,0.841500064 1.32613766,1.32613329 C0.841586189,1.81076652 0.841504436,2.59862253 1.32613766,3.08317401 L8.20534611,9.96238245 L1.32613766,16.8440435 C0.841504436,17.3261424 0.841504436,18.1165327 1.32613766,18.6010842 C1.81077089,19.0831831 2.5986269,19.0831831 3.08317838,18.6010842 L9.96238683,11.7194232 L16.8440479,18.6010842 C17.3261467,19.0831831 18.1165371,19.0831831 18.6010886,18.6010842 C19.0831875,18.116451 19.0831875,17.3261424 18.6010886,16.8440435 L11.7195093,9.96238245 Z" id="Shape"></path>
                </g>
            </g>
        </g>
    </g>
</svg>