<?xml version="1.0" encoding="UTF-8"?>
<svg width="12px" height="9px" viewBox="0 0 12 9" version="1.1" xmlns="http://www.w3.org/2000/svg" xmlns:xlink="http://www.w3.org/1999/xlink">
    <!-- Generator: Sketch 44.1 (41455) - http://www.bohemiancoding.com/sketch -->
    <title>next</title>
    <desc>Created with Sketch.</desc>
    <defs></defs>
    <g id="Pages" stroke="none" stroke-width="1" fill="none" fill-rule="evenodd">
        <g id="2.4-Signup---Facility-2-4" transform="translate(-820.000000, -2556.000000)" fill-rule="nonzero" fill="#FFFFFF">
            <g id="hero-copy">
                <g id="signupform" transform="translate(549.000000, 138.000000)">
                    <g id="btn-copy-2" transform="translate(0.000000, 2397.000000)">
                        <path d="M278.973662,21.1252171 C278.812346,20.958261 278.543863,20.958261 278.376907,21.1252171 C278.215591,21.2865329 278.215591,21.5550165 278.376907,21.7159563 L281.4028,24.7418492 L271.417767,24.7418492 C271.185006,24.7422253 271,24.9272308 271,25.1599918 C271,25.3927528 271.185006,25.5837747 271.417767,25.5837747 L281.4028,25.5837747 L278.376907,28.6040273 C278.215591,28.7709835 278.215591,29.0398431 278.376907,29.2007829 C278.543863,29.367739 278.812723,29.367739 278.973662,29.2007829 L282.715888,25.4585576 C282.882844,25.2972418 282.882844,25.0287582 282.715888,24.8678184 L278.973662,21.1252171 Z" id="next"></path>
                    </g>
                </g>
            </g>
        </g>
    </g>
</svg>