<?xml version="1.0" encoding="UTF-8"?>
<svg width="19px" height="14px" viewBox="0 0 19 14" version="1.1" xmlns="http://www.w3.org/2000/svg" xmlns:xlink="http://www.w3.org/1999/xlink">
    <!-- Generator: Sketch 44.1 (41455) - http://www.bohemiancoding.com/sketch -->
    <title>no-avatar</title>
    <desc>Created with Sketch.</desc>
    <defs></defs>
    <g id="Pages" stroke="none" stroke-width="1" fill="none" fill-rule="evenodd">
        <g id="3.3-Dash---Messages" transform="translate(-251.000000, -173.000000)" fill-rule="nonzero" fill="#A0B0B9">
            <g id="messages" transform="translate(215.000000, 95.000000)">
                <g id="left-(all-chats)">
                    <g id="chat" transform="translate(20.000000, 60.000000)">
                        <g id="no-avatar" transform="translate(16.000000, 18.000000)">
                            <ellipse id="Oval" cx="9.48454564" cy="8.14333333" rx="2.85096349" ry="2.87680556"></ellipse>
                            <path d="M17.7046085,2.30412778 L14.4708316,2.30412778 C14.3098134,2.15176111 14.1422049,1.9362 14.1422049,1.69648889 L14.1422049,0.860961111 C14.1422049,0.399427778 13.77157,0.0253944444 13.3141826,0.0253944444 L5.65502434,0.0253944444 C5.19775254,0.0253944444 4.82700203,0.399466667 4.82700203,0.860961111 L4.82700203,1.69641111 C4.82700203,1.9362 4.65947059,2.15176111 4.49837525,2.30405 L1.26463692,2.30405 C0.566146045,2.30412778 0,2.65272778 0,3.08268333 L0,13.2038278 C0,13.6337444 0.566146045,13.9823833 1.26463692,13.9823833 L17.7046085,13.9823833 C18.4029838,13.9823833 18.9691298,13.6337444 18.9691298,13.2038667 L18.9691298,3.08268333 C18.9690913,2.65272778 18.4029838,2.30412778 17.7046085,2.30412778 Z M9.48458418,12.1311167 C7.30197363,12.1311167 5.53266126,10.3456111 5.53266126,8.14333333 C5.53266126,5.9409 7.30197363,4.15555 9.48458418,4.15555 C11.6671947,4.15555 13.4364686,5.94082222 13.4364686,8.14333333 C13.4364686,10.3456111 11.6671947,12.1311167 9.48458418,12.1311167 Z" id="Shape"></path>
                            <ellipse id="Oval" cx="15.355931" cy="5.03852222" rx="1" ry="1"></ellipse>
                        </g>
                    </g>
                </g>
            </g>
        </g>
    </g>
</svg>