<?xml version="1.0" encoding="UTF-8"?>
<svg width="20px" height="20px" viewBox="0 0 20 20" version="1.1" xmlns="http://www.w3.org/2000/svg" xmlns:xlink="http://www.w3.org/1999/xlink">
    <!-- Generator: Sketch 44.1 (41455) - http://www.bohemiancoding.com/sketch -->
    <title>notification</title>
    <desc>Created with Sketch.</desc>
    <defs></defs>
    <g id="Symbols" stroke="none" stroke-width="1" fill="none" fill-rule="evenodd">
        <g id="header-dashboard-(facility)" transform="translate(-1098.000000, -29.000000)" fill-rule="nonzero" fill="#A0B0B9">
            <g id="icons">
                <g transform="translate(1098.000000, 26.000000)">
                    <g id="notification" transform="translate(0.000000, 3.000000)">
                        <path d="M19.1502609,15.0429694 C17.3584348,13.4866376 15.7002609,11.2908297 15.7002609,5.80855895 C15.7002609,2.63362445 13.1284348,0.0506550218 9.96721739,0.0506550218 C6.80556522,0.0506550218 4.2333913,2.63362445 4.2333913,5.80855895 C4.2333913,11.2958079 2.57582609,13.4894323 0.782434783,15.0444541 C0.285217391,15.4793886 0,16.1057642 0,16.7630568 C0,17.1248035 0.292,17.4180786 0.652173913,17.4180786 L6.84130435,17.4180786 C7.14321739,18.8733624 8.42982609,19.9702183 9.96686957,19.9702183 C11.503913,19.9702183 12.7906087,18.8734498 13.0924348,17.4180786 L19.2815652,17.4180786 C19.6417391,17.4180786 19.9337391,17.1248035 19.9337391,16.7630568 C19.9337391,16.1004367 19.6478261,15.4731004 19.1502609,15.0429694 Z M9.96686957,18.6601747 C9.15469565,18.6601747 8.46069565,18.1423581 8.1946087,17.4180786 L11.7391304,17.4180786 C11.4730435,18.1423581 10.7790435,18.6601747 9.96686957,18.6601747 Z M1.56121739,16.1080349 C1.58495652,16.0821834 1.61026087,16.0575546 1.63695652,16.0342358 C4.37113043,13.6634061 5.53765217,10.6052402 5.53765217,5.80855895 C5.53765217,3.35598253 7.52478261,1.36069869 9.96713043,1.36069869 C12.4091304,1.36069869 14.3958261,3.35598253 14.3958261,5.80855895 C14.3958261,10.6008734 15.5625217,13.658952 18.298087,16.0348472 C18.3247826,16.0579913 18.350087,16.0823581 18.373913,16.1080349 L1.56121739,16.1080349 L1.56121739,16.1080349 Z" id="Shape"></path>
                    </g>
                </g>
            </g>
        </g>
    </g>
</svg>