<?xml version="1.0" encoding="UTF-8"?>
<svg width="18px" height="18px" viewBox="0 0 18 18" version="1.1" xmlns="http://www.w3.org/2000/svg" xmlns:xlink="http://www.w3.org/1999/xlink">
    <!-- Generator: Sketch 44.1 (41455) - http://www.bohemiancoding.com/sketch -->
    <title>plus</title>
    <desc>Created with Sketch.</desc>
    <defs></defs>
    <g id="Pages" stroke="none" stroke-width="1" fill="none" fill-rule="evenodd">
        <g id="3.3-Dash---Messages" transform="translate(-510.000000, -111.000000)" fill-rule="nonzero" fill="#A0B0B9">
            <g id="messages" transform="translate(215.000000, 95.000000)">
                <g id="left-(all-chats)">
                    <g id="topbar">
                        <path d="M312.018305,23.7419756 L305.252866,23.7419756 L305.252866,16.9765 C305.252866,16.6683049 304.834366,16.0000366 303.997402,16.0000366 C303.160439,16.0000366 302.741939,16.6683415 302.741939,16.9765 L302.741939,23.7420122 L295.976463,23.7420122 C295.668305,23.7419756 295,24.1604756 295,24.9974024 C295,25.8343293 295.668305,26.2528659 295.976463,26.2528659 L302.741976,26.2528659 L302.741976,33.018378 C302.741976,33.3265 303.160439,33.9948415 303.997439,33.9948415 C304.834439,33.9948415 305.252902,33.3265 305.252902,33.018378 L305.252902,26.2528659 L312.018415,26.2528659 C312.326537,26.2528659 312.994878,25.8344024 312.994878,24.9974024 C312.994878,24.1604024 312.326463,23.7419756 312.018305,23.7419756 Z" id="plus"></path>
                    </g>
                </g>
            </g>
        </g>
    </g>
</svg>