<?xml version="1.0" encoding="UTF-8"?>
<svg width="17px" height="16px" viewBox="0 0 17 16" version="1.1" xmlns="http://www.w3.org/2000/svg" xmlns:xlink="http://www.w3.org/1999/xlink">
    <!-- Generator: Sketch 44.1 (41455) - http://www.bohemiancoding.com/sketch -->
    <title>rating</title>
    <desc>Created with Sketch.</desc>
    <defs></defs>
    <g id="Pages" stroke="none" stroke-width="1" fill="none" fill-rule="evenodd">
        <g id="3.1-Dash---Facility-(search)" transform="translate(-1067.000000, -1494.000000)" fill-rule="nonzero" fill="#FDB22B">
            <g id="results" transform="translate(215.000000, 1282.000000)">
                <g id="card-copy-4" transform="translate(0.000000, 42.000000)">
                    <g id="rating" transform="translate(852.000000, 167.000000)">
                        <path d="M16.9449897,9.16263156 C16.9449897,8.91392488 16.7551533,8.75936161 16.3751954,8.69880049 L11.2688169,7.96295643 L8.9800554,3.37563719 C8.85128874,3.10005762 8.68500373,2.96233846 8.48159231,2.96233846 C8.27821652,2.96233846 8.1120384,3.10005762 7.98316485,3.37563719 L5.69429643,7.96295643 L0.587668519,8.69880049 C0.207995701,8.75936161 0.0180880318,8.91392488 0.0180880318,9.16263156 C0.0180880318,9.30384666 0.102887329,9.46515464 0.272450293,9.64662612 L3.97525791,13.2156005 L3.10043558,18.2564395 C3.08686057,18.3505829 3.08012651,18.4179947 3.08012651,18.4581451 C3.08012651,18.5992896 3.11568521,18.7185402 3.18687386,18.8160737 C3.25802688,18.9137483 3.36477423,18.9623385 3.50725843,18.9623385 C3.62939792,18.9623385 3.76496991,18.922188 3.91415253,18.8414634 L8.48148542,16.4618882 L13.049139,18.8414634 C13.1918013,18.922188 13.3274089,18.9623385 13.4558906,18.9623385 C13.5919614,18.9623385 13.6951457,18.9137483 13.7663344,18.8160737 C13.8373092,18.7186815 13.8729036,18.5992896 13.8729036,18.4581451 C13.8729036,18.3708876 13.8694831,18.3036878 13.8626778,18.2564395 L12.9877842,13.2156005 L16.680366,9.64662612 C16.8569481,9.47186404 16.9449897,9.31048543 16.9449897,9.16263156 Z"></path>
                    </g>
                </g>
            </g>
        </g>
    </g>
</svg>