<?xml version="1.0" encoding="UTF-8"?>
<svg width="9px" height="6px" viewBox="0 0 9 6" version="1.1" xmlns="http://www.w3.org/2000/svg" xmlns:xlink="http://www.w3.org/1999/xlink">
    <!-- Generator: Sketch 44.1 (41455) - http://www.bohemiancoding.com/sketch -->
    <title>select</title>
    <desc>Created with Sketch.</desc>
    <defs></defs>
    <g id="Pages" stroke="none" stroke-width="1" fill="none" fill-rule="evenodd" opacity="0.495074728">
        <g id="1.3-Reqest-a-demo" transform="translate(-1308.000000, -777.000000)" fill-rule="nonzero" fill="#000000">
            <g id="hero">
                <g id="Mega-heading" transform="translate(216.000000, 284.000000)">
                    <g id="signupform" transform="translate(739.000000, 83.000000)">
                        <g id="input-copy-5" transform="translate(50.000000, 385.000000)">
                            <g id="select" transform="translate(307.500000, 28.000000) rotate(90.000000) translate(-307.500000, -28.000000) translate(304.500000, 23.500000)">
                                <path d="M0.782051282,8.21794872 C0.884615385,8.32051282 1.01282051,8.37179487 1.15384615,8.37179487 C1.28205128,8.37179487 1.42307692,8.32051282 1.52564103,8.21794872 L4.91025641,4.83333333 C5.01282051,4.73076923 5.06410256,4.6025641 5.06410256,4.46153846 C5.06410256,4.32051282 5.01282051,4.19230769 4.91025641,4.08974359 L1.52564103,0.705128205 C1.32051282,0.5 0.987179487,0.5 0.782051282,0.705128205 C0.576923077,0.91025641 0.576923077,1.24358974 0.782051282,1.44871795 L3.79487179,4.46153846 L0.782051282,7.47435897 C0.576923077,7.67948718 0.576923077,8.01282051 0.782051282,8.21794872 L0.782051282,8.21794872 Z"></path>
                            </g>
                        </g>
                    </g>
                </g>
            </g>
        </g>
    </g>
</svg>