<?xml version="1.0" encoding="UTF-8"?>
<svg width="30px" height="25px" viewBox="0 0 30 25" version="1.1" xmlns="http://www.w3.org/2000/svg" xmlns:xlink="http://www.w3.org/1999/xlink">
    <!-- Generator: Sketch 44.1 (41455) - http://www.bohemiancoding.com/sketch -->
    <title>twitter</title>
    <desc>Created with Sketch.</desc>
    <defs></defs>
    <g id="Symbols" stroke="none" stroke-width="1" fill="none" fill-rule="evenodd">
        <g id="footer" transform="translate(-1245.000000, -79.000000)" fill-rule="nonzero" fill="#FFFFFF">
            <g id="socials">
                <g transform="translate(1245.000000, 77.000000)">
                    <g id="twitter" transform="translate(0.000000, 2.000000)">
                        <path d="M30,2.9747992 C28.8958333,3.47585341 27.7110784,3.81566265 26.4662745,3.96736948 C27.7373039,3.18790161 28.7102451,1.95155622 29.1713725,0.482881526 C27.9791176,1.20471888 26.6630882,1.72886546 25.2608333,2.01300201 C24.1379412,0.78624498 22.5407353,0.0221385542 20.7691667,0.0221385542 C17.3704412,0.0221385542 14.6147059,2.84427711 14.6147059,6.32299197 C14.6147059,6.81636546 14.6690686,7.29824297 14.7740686,7.75903614 C9.66004902,7.49598394 5.12529412,4.98679719 2.0902451,1.17399598 C1.55970588,2.10321285 1.25789216,3.18594378 1.25789216,4.34171687 C1.25789216,6.52841365 2.34519608,8.45783133 3.99490196,9.58664659 C2.98632353,9.55210843 2.0377451,9.26797189 1.20730392,8.79568273 L1.20730392,8.87439759 C1.20730392,11.9269076 3.32941176,14.474498 6.14323529,15.0543173 C5.62769608,15.1963855 5.08406863,15.2751004 4.52166667,15.2751004 C4.12426471,15.2751004 3.73995098,15.2347892 3.36313725,15.1579819 C4.14671569,17.6633534 6.41882353,19.485241 9.11083333,19.5351908 C7.00558824,21.2246486 4.35107843,22.2287149 1.46789216,22.2287149 C0.971127451,22.2287149 0.481813725,22.197992 4.90196079e-05,22.1423193 C2.72392157,23.9335341 5.95769608,24.9779116 9.43328431,24.9779116 C20.7542647,24.9779116 26.9425,15.3749498 26.9425,7.04678715 L26.9218627,6.23087349 C28.1309804,5.34769076 29.1770098,4.23805221 30,2.9747992 Z" id="Shape"></path>
                    </g>
                </g>
            </g>
        </g>
    </g>
</svg>