<?xml version="1.0" encoding="UTF-8"?>
<svg width="16px" height="15px" viewBox="0 0 16 15" version="1.1" xmlns="http://www.w3.org/2000/svg" xmlns:xlink="http://www.w3.org/1999/xlink">
    <!-- Generator: Sketch 44.1 (41455) - http://www.bohemiancoding.com/sketch -->
    <title>verify</title>
    <desc>Created with Sketch.</desc>
    <defs></defs>
    <g id="Pages" stroke="none" stroke-width="1" fill="none" fill-rule="evenodd">
        <g id="3.1-Dash---Facility-(search)" transform="translate(-531.000000, -1432.000000)" fill-rule="nonzero" fill="#2AC7A8">
            <g id="results" transform="translate(215.000000, 1282.000000)">
                <g id="card-copy-4" transform="translate(0.000000, 42.000000)">
                    <g id="Group" transform="translate(165.000000, 42.000000)">
                        <g id="verify" transform="translate(151.000000, 66.000000)">
                            <path d="M1.07488627,9.92655031 C1.3296,10.1344559 1.53898039,10.3954312 1.51858824,10.5729979 C1.50660392,10.6790452 1.49998431,10.786848 1.49998431,10.8964066 C1.49998431,12.510154 2.79567059,13.8182033 4.39378824,13.8182033 C4.59118431,13.8182033 4.78378039,13.7981828 4.97010196,13.7601437 C5.2838902,13.6962628 5.6544,13.8199281 5.87639216,14.0617762 C6.40407843,14.6360883 7.15648627,14.9963347 7.99378824,14.9963347 C8.87818039,14.9963347 9.66989804,14.5954312 10.2005961,13.9639528 C10.4115137,13.7130493 10.7685333,13.6087269 11.0859294,13.7021458 C11.3421176,13.7775154 11.6133333,13.8182033 11.8938039,13.8182033 C13.4918902,13.8182033 14.7876078,12.5098768 14.7876078,10.8964066 C14.7876078,10.715883 14.7708235,10.5394251 14.7390118,10.3683265 C14.685302,10.079692 14.8284235,9.7200616 15.0675137,9.49472279 C15.6330039,8.96220739 15.9876078,8.20469199 15.9876078,7.36201232 C15.9876078,6.44454825 15.5682196,5.62721766 14.9126902,5.09205339 C14.6580078,4.88411704 14.4485961,4.62314168 14.4689882,4.44554415 C14.4810039,4.33952772 14.4875922,4.23172485 14.4875922,4.12213552 C14.4875922,2.50838809 13.1918745,1.20036961 11.5937882,1.20036961 C11.3963922,1.20036961 11.2037961,1.22039014 11.0175059,1.25839836 C10.7037176,1.32231006 10.3332078,1.19861396 10.1111843,0.956796715 C9.58349804,0.382453799 8.8310902,0.022238193 7.99378824,0.022238193 C7.15651765,0.022238193 6.4041098,0.382453799 5.87639216,0.956796715 C5.6544,1.19830595 5.2838902,1.32231006 4.97010196,1.25839836 C4.78381176,1.22039014 4.59118431,1.20036961 4.39378824,1.20036961 C2.79570196,1.20036961 1.49998431,2.5086961 1.49998431,4.12213552 C1.49998431,4.27764887 1.51228235,4.43020534 1.53596863,4.57897331 C1.57556078,4.82932238 1.3964549,5.13797741 1.13606275,5.33916838 C0.446086275,5.872577 0,6.71109856 0,7.65656057 C0,8.57402464 0.419388235,9.39138604 1.07488627,9.92655031 Z M4.12470588,7.76229979 C4.18889412,7.65064682 4.35272157,7.64919918 4.50271373,7.77705339 L6.01232941,8.82175565 C6.09421176,8.87066735 6.17251765,8.89567762 6.24781176,8.89567762 C6.40351373,8.89567762 6.52680784,8.78553388 6.64589804,8.67945585 L11.4768,3.93187885 C11.7788863,3.60936345 12.0725647,3.49567762 12.2643137,3.61937372 C12.3527843,3.67650924 12.4100706,3.76250513 12.4254118,3.86177618 C12.443702,3.97958932 12.4016941,4.10651951 12.3072,4.21903491 L6.49860392,11.1464476 C6.41430588,11.2468583 6.30691765,11.302269 6.19651765,11.302269 C6.06541176,11.302269 5.94663529,11.2247741 5.87011765,11.0898973 L4.16520784,8.07237166 C4.09471373,7.95960986 4.0790902,7.84244353 4.12470588,7.76229979 Z" id="Shape"></path>
                        </g>
                    </g>
                </g>
            </g>
        </g>
    </g>
</svg>