<?xml version="1.0" encoding="UTF-8"?>
<svg width="22px" height="15px" viewBox="0 0 22 15" version="1.1" xmlns="http://www.w3.org/2000/svg" xmlns:xlink="http://www.w3.org/1999/xlink">
    <!-- Generator: Sketch 44.1 (41455) - http://www.bohemiancoding.com/sketch -->
    <title>videocall</title>
    <desc>Created with Sketch.</desc>
    <defs></defs>
    <g id="Pages" stroke="none" stroke-width="1" fill="none" fill-rule="evenodd">
        <g id="3.3-Dash---Messages" transform="translate(-1196.000000, -113.000000)" fill-rule="nonzero" fill="#FFFFFF">
            <g id="messages" transform="translate(215.000000, 95.000000)">
                <g id="content-part" transform="translate(330.000000, -2.000000)">
                    <g id="topbar-copy" transform="translate(0.000000, 2.000000)">
                        <g id="btn-copy-5" transform="translate(641.000000, 10.000000)">
                            <path d="M30.7651131,11.0233651 C30.361973,10.7656076 29.8612931,10.7311163 29.4269996,10.9317592 L26.587959,12.2420571 L26.587959,12.1934726 C26.587959,11.5173693 26.0379528,10.9669922 25.3614786,10.9669922 L23.6209667,10.9669922 L23.6209667,9.11262208 C23.6209667,8.49919644 23.1217703,8 22.5083447,8 L10.6403758,8 C10.4356534,8 10.2695018,8.16578069 10.2695018,8.37087403 C10.2695018,8.57596736 10.4356534,8.74174805 10.6403758,8.74174805 L22.5083447,8.74174805 C22.7126963,8.74174805 22.8792187,8.90789962 22.8792187,9.11262208 L22.8792187,10.9669922 L11.4959822,10.9669922 C10.819508,10.9673631 10.2695018,11.5173693 10.2695018,12.1934726 L10.2695018,21.6088515 C10.2695018,22.2849549 10.819508,22.8353319 11.4959822,22.8353319 L25.3614786,22.8353319 C26.0379528,22.8353319 26.587959,22.2853258 26.587959,21.6088515 L26.587959,21.560267 L29.4269996,22.870565 C29.6146619,22.9569786 29.814563,23 30.0137223,23 C30.2759303,23 30.5362838,22.9258252 30.765484,22.7789591 C31.1686241,22.5212016 31.4093213,22.081345 31.4093213,21.6025467 L31.4093213,12.2001483 C31.4093213,11.72135 31.1686241,11.2814934 30.7651131,11.0233651 Z M25.8462109,21.6088515 C25.8462109,21.8762517 25.6288787,22.0935839 25.3614786,22.0935839 L11.4959822,22.0935839 C11.228582,22.0935839 11.0112498,21.8762517 11.0112498,21.6088515 L11.0112498,12.1934726 C11.0112498,11.9260724 11.228582,11.7087403 11.4959822,11.7087403 L25.3614786,11.7087403 C25.6288787,11.7087403 25.8462109,11.9260724 25.8462109,12.1934726 L25.8462109,12.5843738 L25.8462109,21.2179503 L25.8462109,21.6088515 L25.8462109,21.6088515 Z M30.6675732,21.6025467 C30.6675732,21.8302633 30.5574237,22.0316479 30.3656818,22.1544072 C30.1739399,22.2771665 29.9454815,22.2938559 29.7381629,22.1970577 L26.587959,20.7436024 L26.587959,13.0587217 L29.7377921,11.6052664 C29.9447398,11.5088392 30.173569,11.5251576 30.3653109,11.6479169 C30.5570528,11.7706762 30.6675732,11.9724317 30.6675732,12.2001483 L30.6675732,21.6025467 Z" id="videocall"></path>
                        </g>
                    </g>
                </g>
            </g>
        </g>
    </g>
</svg>